<svg width="62" height="38" viewBox="0 0 62 38" fill="none" xmlns="http://www.w3.org/2000/svg">
<g clip-path="url(#clip0_15_82)">
<path d="M58.0519 23.4446C55.886 28.9382 51.8139 33.7494 46.1578 35.8643C45.4221 36.1389 44.671 36.3719 43.908 36.5621C39.8726 37.5698 35.4579 37.2192 31.738 35.3831C30.1592 34.6031 28.7196 33.5725 27.135 32.8038C25.5505 32.0351 23.7411 31.5319 22.0165 31.9114C20.5315 32.2381 19.2787 33.1744 18.0173 34.0085C15.0436 35.9749 11.4681 37.531 7.94692 36.8556C6.32666 36.5453 4.73118 35.6855 3.97872 34.2484C2.31557 31.0712 5.4522 27.2939 4.81696 23.7802C4.41047 21.5314 2.55385 19.8474 1.39965 17.8627C-0.575632 14.469 -0.342124 9.95884 1.97389 6.77795C4.2899 3.59707 8.56547 1.90977 12.4855 2.63137C17.2653 3.51119 20.8799 7.47387 25.5281 8.87552C28.4351 9.7516 31.5912 9.49022 34.3676 8.33642C38.8533 6.47177 45.016 3.612 50.064 4.07782C52.7484 4.32566 55.3813 5.49253 57.1531 7.48508C59.3929 10.0004 60.0644 13.5715 59.6907 16.8882C59.4343 19.1335 58.8835 21.3372 58.0519 23.4446Z" fill="url(#paint0_linear_15_82)"/>
<path d="M59.4929 27.7894C59.3933 27.7893 59.2941 27.7776 59.1974 27.7544C58.8916 27.6808 58.626 27.4956 58.4548 27.2366C58.2837 26.9777 58.2199 26.6645 58.2765 26.3611C58.3331 26.0576 58.5058 25.7868 58.7594 25.6039C59.013 25.4209 59.3283 25.3397 59.641 25.3767C59.9536 25.4138 60.2401 25.5663 60.4418 25.8032C60.6435 26.0401 60.7454 26.3434 60.7265 26.6514C60.7076 26.9593 60.5694 27.2485 60.3401 27.46C60.1109 27.6715 59.8078 27.7894 59.4929 27.7894ZM59.4929 25.914C59.329 25.9147 59.1711 25.9739 59.0488 26.0807C58.9264 26.1874 58.8482 26.3343 58.8287 26.4936C58.8093 26.653 58.85 26.8138 58.9432 26.9457C59.0364 27.0777 59.1756 27.1718 59.3347 27.2102C59.4268 27.2319 59.5225 27.2342 59.6156 27.2171C59.7087 27.1999 59.797 27.1636 59.8747 27.1107C59.9525 27.0577 60.0179 26.9892 60.0667 26.9096C60.1154 26.8301 60.1465 26.7414 60.1577 26.6492C60.169 26.5571 60.1602 26.4637 60.1319 26.3752C60.1037 26.2866 60.0566 26.2049 59.9938 26.1355C59.931 26.066 59.8539 26.0104 59.7675 25.9722C59.6812 25.9341 59.5876 25.9142 59.4929 25.914Z" fill="#E7F6FF"/>
<path d="M58.3649 29.0733C58.4352 28.7895 58.2572 28.5036 57.9674 28.4347C57.6776 28.3659 57.3857 28.5402 57.3155 28.8241C57.2452 29.1079 57.4232 29.3938 57.713 29.4626C58.0027 29.5314 58.2946 29.3571 58.3649 29.0733Z" fill="#E7F6FF"/>
<path d="M2.63009 27.6739C2.30277 27.6669 1.99149 27.5338 1.76381 27.3033C1.53613 27.0729 1.41044 26.7638 1.41401 26.4432C1.41759 26.1225 1.55015 25.8162 1.78291 25.5907C2.01568 25.3652 2.32986 25.2387 2.65725 25.2387C2.98464 25.2387 3.29882 25.3652 3.53159 25.5907C3.76435 25.8162 3.89691 26.1225 3.90048 26.4432C3.90406 26.7638 3.77837 27.0729 3.55069 27.3033C3.32301 27.5338 3.01173 27.6669 2.68441 27.6739H2.63009ZM2.63009 25.799H2.60197C2.42519 25.8028 2.25705 25.8747 2.13407 25.9991C2.01108 26.1235 1.94318 26.2904 1.94509 26.4636C1.947 26.6368 2.01859 26.8022 2.14429 26.924C2.27 27.0458 2.43968 27.1142 2.6165 27.1142C2.79333 27.1142 2.96301 27.0458 3.08872 26.924C3.21442 26.8022 3.28601 26.6368 3.28792 26.4636C3.28983 26.2904 3.22193 26.1235 3.09894 25.9991C2.97595 25.8747 2.80782 25.8028 2.63104 25.799H2.63009Z" fill="#E7F6FF"/>
<path d="M1.74356 29.7176C2.04147 29.705 2.27256 29.4582 2.25971 29.1664C2.24686 28.8746 1.99493 28.6483 1.69702 28.6609C1.3991 28.6735 1.16801 28.9202 1.18086 29.212C1.19371 29.5038 1.44564 29.7302 1.74356 29.7176Z" fill="#E7F6FF"/>
<path d="M33.791 7.98643C33.4943 7.98685 33.2073 7.88323 32.9818 7.69432C32.7564 7.50542 32.6075 7.24371 32.562 6.95657C32.5165 6.66942 32.5775 6.37582 32.7339 6.12889C32.8903 5.88196 33.1317 5.69803 33.4146 5.61039C33.6975 5.52274 34.003 5.53718 34.276 5.65107C34.5489 5.76497 34.7712 5.97081 34.9026 6.23133C35.034 6.49185 35.0659 6.78984 34.9924 7.07136C34.9189 7.35289 34.7449 7.59934 34.502 7.76613C34.2936 7.90914 34.0454 7.98604 33.791 7.98643ZM33.7872 6.1115C33.6136 6.11133 33.4466 6.17678 33.3211 6.29421C33.1955 6.41164 33.1211 6.57199 33.1133 6.74184C33.1055 6.91169 33.1649 7.07794 33.2792 7.20593C33.3935 7.33392 33.5538 7.41378 33.7267 7.42887C33.8996 7.44395 34.0718 7.39309 34.2073 7.2869C34.3429 7.1807 34.4314 7.02736 34.4544 6.85883C34.4774 6.6903 34.433 6.51959 34.3307 6.38228C34.2283 6.24497 34.0758 6.15165 33.9049 6.12177C33.866 6.11499 33.8266 6.11155 33.7872 6.1115Z" fill="#E7F6FF"/>
<path d="M31.2563 7.91969C31.5004 7.752 31.5596 7.42222 31.3883 7.18309C31.2171 6.94396 30.8804 6.88605 30.6363 7.05374C30.3921 7.22142 30.333 7.55121 30.5042 7.79034C30.6754 8.02946 31.0121 8.08738 31.2563 7.91969Z" fill="#E7F6FF"/>
<path d="M61.2837 14.2591C61.2842 13.746 61.0766 13.2536 60.7066 12.8904C60.3365 12.5271 59.8343 12.3227 59.3104 12.3221C59.2665 12.3221 59.2232 12.3221 59.1803 12.3263C59.1831 12.2843 59.1846 12.2418 59.1846 12.1989C59.1845 11.9239 59.1246 11.652 59.0088 11.4014C58.893 11.1508 58.7241 10.9273 58.5131 10.7457C58.3022 10.5642 58.0542 10.4287 57.7856 10.3484C57.517 10.2681 57.2341 10.2448 56.9556 10.2801C56.6771 10.3153 56.4095 10.4083 56.1705 10.5529C55.9316 10.6974 55.7269 10.8901 55.5701 11.1183C55.4132 11.3464 55.3078 11.6046 55.2608 11.8758C55.2139 12.147 55.2265 12.4248 55.2979 12.6908C55.0591 12.5212 54.7845 12.4061 54.4944 12.354C54.2043 12.3019 53.9059 12.3141 53.6212 12.3896C53.3365 12.4652 53.0727 12.6022 52.8491 12.7907C52.6255 12.9791 52.4479 13.2142 52.3292 13.4787C52.2105 13.7432 52.1538 14.0304 52.1632 14.3191C52.1726 14.6079 52.2479 14.8909 52.3836 15.1474C52.5192 15.404 52.7118 15.6275 52.9472 15.8016C53.1826 15.9757 53.4548 16.096 53.7438 16.1537C53.8619 16.4602 54.0574 16.7324 54.3122 16.9447C54.5669 17.157 54.8726 17.3025 55.2004 17.3675C55.5282 17.4325 55.8676 17.415 56.1866 17.3165C56.5056 17.218 56.7939 17.0417 57.0244 16.8043C57.2602 16.9787 57.533 17.099 57.8226 17.1564C58.1122 17.2138 58.4112 17.2069 58.6978 17.1362C58.9843 17.0654 59.2509 16.9326 59.4781 16.7475C59.7053 16.5625 59.8872 16.3299 60.0104 16.0668C60.3846 15.9273 60.7068 15.6798 60.9342 15.357C61.1616 15.0342 61.2835 14.6513 61.2837 14.2591Z" fill="white"/>
<path d="M9.12349 9.60582C9.12349 9.09267 8.91539 8.60053 8.54497 8.23764C8.17454 7.87474 7.67212 7.67081 7.1482 7.67068C7.10436 7.67068 7.061 7.67068 7.01811 7.67488C7.02097 7.63287 7.0224 7.5904 7.0224 7.54746C7.02234 7.27242 6.96243 7.00056 6.84665 6.74999C6.73087 6.49941 6.56189 6.27589 6.35097 6.09432C6.14005 5.91275 5.89203 5.7773 5.62345 5.69701C5.35488 5.61671 5.07191 5.59341 4.79341 5.62866C4.51492 5.66391 4.24729 5.7569 4.00838 5.90143C3.76947 6.04596 3.56476 6.23871 3.40789 6.46684C3.25102 6.69496 3.14561 6.95321 3.09867 7.22438C3.05173 7.49555 3.06435 7.7734 3.13569 8.03941C2.8969 7.8698 2.62236 7.75471 2.33223 7.70258C2.0421 7.65046 1.74374 7.66262 1.45903 7.73818C1.17432 7.81374 0.910506 7.95078 0.686934 8.13924C0.463361 8.3277 0.28571 8.5628 0.167015 8.82728C0.0483213 9.09177 -0.00840296 9.37893 0.00100536 9.66769C0.0104137 9.95645 0.0857158 10.2395 0.221386 10.496C0.357056 10.7525 0.54965 10.9761 0.785036 11.1502C1.02042 11.3243 1.29262 11.4446 1.58167 11.5022C1.69979 11.8085 1.89533 12.0804 2.14997 12.2925C2.40462 12.5046 2.71004 12.65 3.03766 12.715C3.36529 12.78 3.70439 12.7625 4.02324 12.6642C4.34209 12.5659 4.63026 12.39 4.86078 12.1529C5.09662 12.3272 5.36938 12.4475 5.65899 12.505C5.94859 12.5624 6.24766 12.5555 6.53417 12.4847C6.82068 12.414 7.08734 12.2812 7.31451 12.0961C7.54169 11.911 7.72359 11.6784 7.84682 11.4154C8.22198 11.2763 8.54505 11.0287 8.77309 10.7055C9.00113 10.3823 9.12334 9.99871 9.12349 9.60582Z" fill="white"/>
<g opacity="0.04">
<path opacity="0.04" d="M43.7565 25.9445H29.7584L15.9633 30.2218V30.316H1.86377V34.886H15.9633V34.7917L29.7584 30.5144H43.7565V30.4831L57.7545 26.1433V21.5734L43.7565 25.9132V25.9445Z" fill="#A8A8A8"/>
</g>
<path d="M19.4079 8.07193H7.37366V35.0369H19.4079V8.07193Z" fill="white"/>
<path d="M54.8247 27.373L42.791 31.1037V4.13877L54.8247 0.408051V27.373Z" fill="#E5E5E5"/>
<path d="M42.8777 4.13867H30.8435V31.1036H42.8777V4.13867Z" fill="white"/>
<path d="M30.9302 31.1036L18.8959 34.8348V7.86985L30.9302 4.13867V31.1036Z" fill="#E5E5E5"/>
<path d="M18.0301 18.1298H15.3462V32.8842H18.0301V18.1298Z" fill="#E8EDF7"/>
<path d="M33.717 14.9079H31.9691V28.9841H37.6914L33.717 14.9079Z" fill="#C0CEE2"/>
<path d="M34.3256 14.9079L38.3 28.9841H41.7521V14.9079H34.3256Z" fill="#C0CEE2"/>
<path d="M53.1173 2.84558L44.2626 5.50138V6.7672V9.57795V9.82019L53.1173 2.84558Z" fill="#C0CEE2"/>
<path d="M44.2626 10.6261V10.8278V13.8416L53.6129 11.0163V6.76753V3.26132L44.2626 10.6261Z" fill="#E8837E"/>
<path d="M53.6129 21.7668V20.8978V13.8317V12.5822V11.6375L44.2626 14.4622V14.8137L53.6129 21.7668Z" fill="#C0CEE2"/>
<path d="M20.541 28.4753V32.5454V32.564L22.6177 31.9036L22.6211 31.8849L23.9197 31.4728L23.9168 31.4905L29.8913 29.5904V29.5773V25.8779V24.6284V19.3173L20.541 28.4753Z" fill="#C0CEE2"/>
<path d="M29.8722 18.5347L29.8913 18.5534V17.5629V16.3134V15.1727L20.541 17.9979V21.6245V22.874V27.6741L29.8722 18.5347Z" fill="#C0CEE2"/>
<path d="M49.8915 19.6845L44.2626 15.4987V17.8936V19.1426V21.3853L49.8915 19.6845Z" fill="#E8837E"/>
<path d="M14.7405 27.3555V18.1298H8.24707V29.3173L14.7405 27.3555Z" fill="#E8837E"/>
<path d="M8.24707 29.9386V32.8842H14.7405V27.9764L8.24707 29.9386Z" fill="#E8EDF7"/>
<path d="M53.8725 5.4957H53.4398V6.00445H53.8725V5.4957Z" fill="white"/>
<path d="M53.8725 10.0744H53.4398V9.05503H53.8725V10.0744ZM53.8725 8.03939H53.4398V7.02188H53.8725V8.03939Z" fill="white"/>
<path d="M53.4184 12.1855L53.1267 11.8723L53.4398 11.5923V11.1768H53.8725V11.7794L53.4184 12.1855Z" fill="white"/>
<path d="M41.925 18.3843H40.8876V17.9605H41.9264L41.925 18.3843ZM39.934 18.3843H38.8951V17.9605H39.9345L39.934 18.3843ZM37.8563 18.3843H36.8174V17.9605H37.8563V18.3843ZM43.0339 18.291L42.9334 17.8784L43.9375 17.6431L44.038 18.0557L43.0339 18.291ZM45.044 17.8205L44.943 17.4097L45.948 17.1764L46.0486 17.589L45.044 17.8205ZM47.0541 17.35L46.9535 16.9374L47.5778 16.7913L47.7846 16.6046L48.0763 16.9178L47.787 17.1764L47.0541 17.35ZM48.8392 16.2373L48.5476 15.9241L49.31 15.2417L49.6017 15.5549L48.8392 16.2373ZM50.3642 14.872L50.0725 14.5588L50.835 13.8765L51.1266 14.1896L50.3642 14.872ZM51.8891 13.5073L51.5975 13.1941L52.3599 12.5117L52.6516 12.8249L51.8891 13.5073Z" fill="white"/>
<path d="M35.21 18.7215L34.8264 18.525L35.1276 17.9602H35.7781V18.384H35.3897L35.21 18.7215Z" fill="white"/>
<path d="M33.5816 21.6889L33.198 21.4929L33.5992 20.7405L33.9829 20.9365L33.5816 21.6889ZM34.3841 20.1841L34.0005 19.9881L34.4017 19.2357L34.7854 19.4317L34.3841 20.1841Z" fill="white"/>
<path d="M32.7511 23.2465L32.3112 22.4465L32.6925 22.2454L32.7454 22.3415L32.7968 22.2449L33.1804 22.4409L32.7511 23.2465Z" fill="white"/>
<path d="M31.8087 20.6375L31.4277 20.8385L31.8696 21.6423L32.2506 21.4414L31.8087 20.6375Z" fill="white"/>
<path d="M30.9859 20.0352L30.822 19.7379L30.4903 19.8308L30.3712 19.4233L31.0378 19.2361L31.3667 19.8345L30.9859 20.0352Z" fill="white"/>
<path d="M19.1805 23.0482H18.9822V22.6244H19.1195L19.882 22.4102L20.0011 22.8176L19.1805 23.0482ZM17.9415 23.0482H16.9884V22.6244H17.9415V23.0482ZM15.9505 23.0482H14.9974V22.6244H15.9505V23.0482ZM14.0443 23.0482H13.0912V22.6244H14.0443V23.0482ZM12.0533 23.0482H11.1035V22.6244H12.0566L12.0533 23.0482ZM20.9571 22.5077L20.8374 22.1002L21.7905 21.8323L21.9101 22.2398L20.9571 22.5077ZM22.8632 21.9723L22.7441 21.5649L23.6972 21.2974L23.8163 21.7049L22.8632 21.9723ZM24.7694 21.437L24.6503 21.0295L25.6034 20.7621L25.7225 21.1695L24.7694 21.437ZM26.6756 20.9016L26.5565 20.4942L27.5096 20.2267L27.6287 20.6342L26.6756 20.9016ZM28.5818 20.3663L28.4627 19.9588L29.4157 19.6913L29.5349 20.0988L28.5818 20.3663Z" fill="white"/>
<path d="M9.71907 23.3023H9.28589V22.5392H10.065V22.9635H9.71907V23.3023Z" fill="white"/>
<path d="M9.80538 24.5749H9.37268V25.8468H9.80538V24.5749Z" fill="white"/>
<path d="M9.80538 27.2029H9.37268V27.7116H9.80538V27.2029Z" fill="white"/>
<path d="M18.0301 9.90506H11.7969V17.5368H18.0301V9.90506Z" fill="#E8EDF7"/>
<path d="M11.1907 9.90506H8.24707V17.5368H11.1907V9.90506Z" fill="#E8837E"/>
<path d="M50.4853 20.1262L46.3332 21.3808L49.1529 27.2777L53.6129 25.8592V25.8466V22.452L50.4853 20.1262Z" fill="#E8837E"/>
<path d="M48.572 27.4624L45.7484 21.5575L44.2626 22.0065V28.8141V28.8332L46.3394 28.1727L46.3427 28.1541L47.6413 27.7419L47.6384 27.7592L48.572 27.4624Z" fill="#C0CEE2"/>
<path d="M7.39308 35.0757L6.82123 35.0738L6.83552 31.0019V7.65845H18.8516L30.7967 3.95481L32.3836 3.92727H42.7466L55.1106 0.0938721V6.35483H54.5387V0.858872L42.8352 4.48737H32.3865L30.8901 4.51351L18.9403 8.21855H7.40738V31.0028L7.39308 35.0757Z" fill="#426572"/>
<path d="M19.1724 35.1833H7.12152V34.6232H19.1391L19.1996 34.6162L30.8845 30.892H42.8591L43.0245 30.871L54.5388 27.2374V13.2154H55.1106V27.6453L43.1503 31.4199L42.8958 31.4521H30.9755L19.322 35.166L19.1724 35.1833Z" fill="#426572"/>
<path d="M55.1106 10.9288H54.5388V11.979H55.1106V10.9288Z" fill="#426572"/>
<path d="M55.1106 7.42038H54.5388V10.2517H55.1106V7.42038Z" fill="#426572"/>
<path opacity="0.2" d="M31.8333 1.09953C24.6699 1.08459 20.2056 5.49956 20.1923 12.4522C20.1875 14.5993 21.3417 17.9533 23.3337 22.0028C24.2334 23.7116 25.3256 25.6098 26.4841 27.5104C27.8985 29.8517 29.4416 32.1938 30.9865 34.3455L31.7585 35.3593C32.0173 35.0428 32.276 34.7278 32.5348 34.3488C34.0888 32.1401 35.6424 29.868 37.0672 27.5343C38.2338 25.6402 39.2703 23.7466 40.1772 22.0411C42.2516 18.0005 43.4201 14.6525 43.4248 12.504C43.4396 5.73806 38.8033 1.11446 31.8333 1.09953ZM31.7928 19.4287C27.5335 19.4198 24.0561 16 24.0656 11.8277C24.0752 7.65547 27.5673 4.25054 31.8267 4.25941C36.086 4.26828 39.5634 7.68907 39.5534 11.8604C39.5434 16.0317 36.0527 19.438 31.7933 19.4292L31.7928 19.4287Z" fill="#8DA3B2"/>
<path d="M37.7753 10.9361C37.7663 15.1093 34.2737 18.5142 30.0143 18.5049C26.3254 18.4969 23.2226 15.9308 22.4649 12.5305C22.387 12.0944 22.3486 11.6524 22.35 11.2096C22.3581 7.03875 25.8507 3.63242 30.1096 3.64082C33.7928 3.64876 36.8918 6.20794 37.6567 9.59793C37.6564 9.59978 37.6564 9.60167 37.6567 9.60353C37.7365 10.0434 37.7762 10.4893 37.7753 10.9361Z" fill="white"/>
<path d="M30.1319 0.270731C22.9695 0.255328 18.5061 4.67076 18.4899 11.622C18.4852 13.7691 19.6394 17.1231 21.6313 21.1726C22.5311 22.8814 23.6233 24.7797 24.7818 26.6803C26.1962 29.0215 27.7392 31.3636 29.2842 33.5153L30.0562 34.5291C30.3149 34.2126 30.5737 33.8976 30.8325 33.5186C32.3865 31.3099 33.94 29.0378 35.3649 26.7041C36.5315 24.81 37.568 22.9164 38.4748 21.2109C40.5492 17.1703 41.7177 13.8223 41.7225 11.6738C41.7377 4.90927 37.1019 0.2852 30.1319 0.270731ZM30.0914 18.5999C25.8326 18.5911 22.3552 15.1693 22.3643 10.9989C22.3733 6.82854 25.8659 3.42128 30.1248 3.43015C34.3837 3.43902 37.8615 6.86121 37.8525 11.0316C37.8434 15.202 34.3508 18.6093 30.0914 18.5999Z" fill="#E8837E"/>
<path d="M38.0284 22.217C37.2316 23.6961 36.3433 25.2882 35.3626 26.8803C33.9387 29.214 32.3847 31.4875 30.8306 33.6948C30.5719 34.0738 30.3131 34.3889 30.0539 34.7053L29.2819 33.6915C27.7379 31.5398 26.1939 29.1977 24.7799 26.8569C23.6215 24.9573 22.5292 23.059 21.6295 21.3493C19.6375 17.2998 18.4843 13.9472 18.4881 11.7987C18.4943 8.92964 19.2582 6.49322 20.6564 4.62109C20.1026 6.03301 19.8096 7.64142 19.8053 9.41459C19.8005 11.5616 20.9547 14.9161 22.9467 18.9652C23.8464 20.6739 24.9386 22.5722 26.0971 24.4728C27.511 26.8135 29.0546 29.1557 30.599 31.3074L31.371 32.3212C31.6303 32.0047 31.889 31.6897 32.1478 31.3107C33.7013 29.1025 35.2554 26.8299 36.6798 24.4961C37.1511 23.733 37.5995 22.9689 38.0284 22.217Z" fill="#D66765"/>
<path d="M30.0453 35.119L29.0098 33.7594C27.4643 31.6063 25.9027 29.2352 24.4935 26.9024C23.2855 24.9243 22.1928 23.0107 21.3336 21.3799L21.3297 21.3719C19.2186 17.0806 18.1507 13.8195 18.1555 11.679C18.1631 8.17182 19.283 5.22571 21.3931 3.15895C23.5033 1.09219 26.5122 0 30.0934 0H30.1306C33.6337 0.00746796 36.625 1.137 38.7813 3.26723C39.8461 4.32483 40.6726 5.5894 41.2074 6.97928C41.7731 8.4262 42.0581 10.0243 42.0542 11.7294C42.0495 13.889 40.9144 17.237 38.7708 21.4125V21.4167C37.9636 22.9346 36.8794 24.9323 35.6509 26.9276C34.1288 29.4228 32.5 31.7818 31.1075 33.7603C30.8464 34.1421 30.5833 34.4651 30.3265 34.7774L30.0453 35.119ZM29.553 33.3799L30.0634 34.0502C30.2288 33.8434 30.3908 33.6301 30.5542 33.3935C31.9429 31.4201 33.5641 29.0719 35.0771 26.5916C36.2961 24.6121 37.3736 22.6265 38.1747 21.1175C40.2715 17.0335 41.3814 13.7868 41.3861 11.7284C41.3933 8.49108 40.3282 5.7242 38.3067 3.72745C36.279 1.72323 33.4507 0.660448 30.1292 0.653447H30.0934C26.6928 0.653447 23.8478 1.68029 21.8644 3.62103C19.881 5.56177 18.8298 8.34965 18.8236 11.6804C18.8193 13.692 19.8934 16.9439 21.9297 21.0844C22.7823 22.704 23.8674 24.6004 25.0678 26.5687C26.4669 28.8866 28.0181 31.2413 29.553 33.3799ZM30.1068 18.9831H30.0891C28.4914 18.9816 26.93 18.5156 25.603 17.644C24.2759 16.7724 23.243 15.5345 22.6351 14.0873C22.0272 12.64 21.8717 11.0486 22.1883 9.51472C22.5049 7.98082 23.2793 6.57352 24.4135 5.47122C25.1599 4.7374 26.047 4.15541 27.024 3.75874C28.0009 3.36206 29.0483 3.15854 30.1058 3.15988H30.1234C31.7211 3.16144 33.2824 3.62754 34.6093 4.49911C35.9362 5.37068 36.9691 6.60848 37.577 8.05562C38.1849 9.50275 38.3404 11.0941 38.0239 12.6279C37.7074 14.1617 36.9331 15.569 35.7991 16.6713C35.0528 17.4052 34.1656 17.9873 33.1887 18.384C32.2117 18.7808 31.1643 18.9844 30.1068 18.9831ZM30.1068 3.8138C28.1559 3.83334 26.2916 4.60558 24.9184 5.96293C23.5452 7.32029 22.7739 9.15326 22.7718 11.0641C22.7697 12.975 23.5371 14.8095 24.9073 16.1697C26.2776 17.5299 28.1402 18.3061 30.091 18.3297H30.1072C32.0581 18.3101 33.9224 17.5379 35.2956 16.1805C36.6688 14.8232 37.4401 12.9902 37.4422 11.0793C37.4443 9.16849 36.6769 7.33392 35.3067 5.97371C33.9364 4.61351 32.0738 3.8374 30.123 3.8138H30.1068Z" fill="#426572"/>
<path d="M45.471 37.143H17.045V36.5362H45.471C45.5532 36.5362 45.6319 36.5682 45.69 36.6251C45.7481 36.682 45.7808 36.7591 45.7808 36.8396C45.7808 36.9201 45.7481 36.9972 45.69 37.0541C45.6319 37.111 45.5532 37.143 45.471 37.143Z" fill="#426572"/>
<path d="M15.7736 37.143H14.0356C13.9535 37.143 13.8747 37.111 13.8166 37.0541C13.7585 36.9972 13.7259 36.9201 13.7259 36.8396C13.7259 36.7591 13.7585 36.682 13.8166 36.6251C13.8747 36.5682 13.9535 36.5362 14.0356 36.5362H15.7736C15.8558 36.5362 15.9345 36.5682 15.9926 36.6251C16.0507 36.682 16.0834 36.7591 16.0834 36.8396C16.0834 36.9201 16.0507 36.9972 15.9926 37.0541C15.9345 37.111 15.8558 37.143 15.7736 37.143Z" fill="#426572"/>
<path d="M12.9077 37.143H12.3539C12.2718 37.143 12.193 37.111 12.1349 37.0541C12.0768 36.9972 12.0442 36.9201 12.0442 36.8396C12.0442 36.7591 12.0768 36.682 12.1349 36.6251C12.193 36.5682 12.2718 36.5362 12.3539 36.5362H12.9077C12.9898 36.5362 13.0686 36.5682 13.1267 36.6251C13.1848 36.682 13.2174 36.7591 13.2174 36.8396C13.2174 36.9201 13.1848 36.9972 13.1267 37.0541C13.0686 37.111 12.9898 37.143 12.9077 37.143Z" fill="#426572"/>
<path d="M55.4385 37.143H46.7015V36.5362H55.4385C55.5207 36.5362 55.5995 36.5682 55.6576 36.6251C55.7156 36.682 55.7483 36.7591 55.7483 36.8396C55.7483 36.9201 55.7156 36.9972 55.6576 37.0541C55.5995 37.111 55.5207 37.143 55.4385 37.143Z" fill="#426572"/>
<path d="M10.7698 37.143H2.03235V36.5362H10.7698C10.852 36.5362 10.9308 36.5682 10.9888 36.6251C11.0469 36.682 11.0796 36.7591 11.0796 36.8396C11.0796 36.9201 11.0469 36.9972 10.9888 37.0541C10.9308 37.111 10.852 37.143 10.7698 37.143Z" fill="#426572"/>
<path d="M36.555 4.09527C38.2191 5.608 39.3704 7.56134 39.8303 9.74525C39.9946 10.5475 40.0754 11.3639 40.0714 12.1821C40.0714 12.5425 40.6432 12.5429 40.6432 12.1821C40.6404 9.55529 39.8293 7.01384 38.1504 4.95129C37.7857 4.50506 37.3875 4.08616 36.9591 3.69807C36.6898 3.45303 36.2843 3.84836 36.5545 4.09434L36.555 4.09527Z" fill="white"/>
<path d="M33.5608 2.13586L33.5942 2.1494C33.5027 2.11346 33.6418 2.1704 33.6628 2.17974C33.8024 2.24181 33.9396 2.30856 34.0755 2.37764C34.5442 2.6198 34.9957 2.89269 35.4269 3.19445C35.7276 3.40308 36.014 2.91766 35.7157 2.71089C35.0929 2.27869 34.4257 1.87075 33.7142 1.59583C33.3721 1.46328 33.2234 2.00471 33.5622 2.13586H33.5608Z" fill="white"/>
</g>
<defs>
<linearGradient id="paint0_linear_15_82" x1="0.0629399" y1="19.7914" x2="59.7875" y2="19.7914" gradientUnits="userSpaceOnUse">
<stop stop-color="#C5E9FA"/>
<stop offset="1" stop-color="#C4F4EA"/>
</linearGradient>
<clipPath id="clip0_15_82">
<rect width="61.2857" height="37.1429" fill="white"/>
</clipPath>
</defs>
</svg>
