<svg width="17" height="15" viewBox="0 0 17 15" fill="none" xmlns="http://www.w3.org/2000/svg">
<g clip-path="url(#clip0_12_3198)">
<path d="M10.9227 8.05843C10.9228 8.29356 10.9084 8.52846 10.8797 8.76168C10.8446 9.10328 10.7787 9.44067 10.6827 9.76937L10.6616 9.76368C10.3163 10.8555 9.64881 11.8061 8.75426 12.4797C7.85972 13.1534 6.78377 13.5158 5.67979 13.5154H5.64047H5.61571C5.05606 13.516 4.49994 13.4231 3.96858 13.2402L1.91767 14.6486C1.8361 14.7052 1.74014 14.7351 1.64211 14.7345C1.54409 14.7338 1.44848 14.7027 1.36758 14.6451C1.28667 14.5875 1.22416 14.5059 1.18808 14.411C1.152 14.3161 1.144 14.2122 1.1651 14.1125L1.67737 11.6581C1.01256 10.8696 0.580158 9.89831 0.431976 8.86048C0.283794 7.82265 0.426113 6.76235 0.841882 5.80659C1.25765 4.85084 1.92924 4.04017 2.77619 3.47171C3.62313 2.90325 4.60952 2.6011 5.61717 2.60147H5.64156H5.68161C6.36986 2.60142 7.05137 2.74253 7.68725 3.01675C8.32312 3.29096 8.90089 3.69291 9.38757 4.19964C9.87425 4.70637 10.2603 5.30796 10.5237 5.97005C10.7871 6.63215 10.9227 7.34178 10.9227 8.05843Z" fill="white"/>
<path d="M5.45186 2.60107C5.23596 2.60099 5.02026 2.61466 4.80597 2.64202C6.0744 2.80617 7.24156 3.44716 8.08798 4.44447C8.9344 5.44179 9.40177 6.72671 9.40222 8.05765C9.40222 8.29292 9.38775 8.52795 9.35889 8.76129C9.32397 9.10279 9.25801 9.44006 9.16192 9.76859L9.1408 9.76253C8.82995 10.7446 8.25778 11.6146 7.4908 12.2714C6.72383 12.9282 5.79356 13.3449 4.80815 13.4729C6.01289 13.6283 7.23206 13.3433 8.25737 12.6665C9.28269 11.9898 10.0505 10.9633 10.4297 9.76253L10.4508 9.76859C10.5469 9.44006 10.6128 9.10279 10.6478 8.76129C10.7434 7.99191 10.6805 7.21014 10.4632 6.46808C10.2459 5.72601 9.87922 5.04069 9.38757 4.45779C8.89591 3.87489 8.29059 3.40779 7.61194 3.08763C6.9333 2.76747 6.19691 2.6016 5.45186 2.60107Z" fill="#C5C6EF"/>
<path d="M1.52589 15C1.41445 14.9995 1.30452 14.9731 1.20413 14.9227C1.10373 14.8723 1.01542 14.7993 0.94563 14.7088C0.875842 14.6183 0.826345 14.5127 0.800754 14.3998C0.775163 14.2869 0.774126 14.1694 0.797717 14.056L1.28305 11.7309C0.454385 10.7016 0.000151607 9.40149 0 8.05841C0 4.90267 2.4656 2.3338 5.49773 2.3338H5.56217C8.59284 2.3338 11.0599 4.90116 11.0599 8.05841C11.0599 8.30393 11.045 8.54921 11.0151 8.79275C10.9781 9.15001 10.909 9.50287 10.8087 9.84669L10.7359 10.0901L10.7046 10.0817C10.3112 11.1703 9.60801 12.1079 8.68904 12.769C7.77008 13.4302 6.67916 13.7834 5.56217 13.7815H5.52285H5.49809C4.95301 13.7821 4.41087 13.6982 3.88955 13.5324L1.93695 14.8707C1.81508 14.9548 1.67212 14.9998 1.52589 15ZM5.49773 2.86759C2.74632 2.86759 0.509723 5.19611 0.509723 8.05841C0.509103 9.3185 0.949148 10.5357 1.74762 11.4826L1.83282 11.5834L1.29324 14.169C1.28336 14.2167 1.28735 14.2664 1.3047 14.3118C1.32205 14.3572 1.35198 14.3962 1.39067 14.4238C1.42937 14.4514 1.47508 14.4664 1.52198 14.4668C1.56888 14.4673 1.61486 14.4532 1.65405 14.4264L3.80982 12.9478L3.92742 12.9884C4.43247 13.1623 4.96106 13.2506 5.493 13.25C5.51448 13.25 5.5294 13.25 5.5436 13.25H5.55708C6.60734 13.2519 7.63125 12.9076 8.48212 12.2665C9.333 11.6254 9.96719 10.7204 10.2939 9.68102L10.3667 9.44445L10.3769 9.4471C10.4335 9.21251 10.4744 8.97411 10.4992 8.73361V8.72793C10.5264 8.50601 10.5401 8.28251 10.54 8.05879C10.54 5.19649 8.30376 2.86797 5.55489 2.86797H5.54069C5.5305 2.86835 5.51484 2.86835 5.49773 2.86759Z" fill="#385868"/>
<path d="M6.07807 5.70112C6.0765 5.93615 6.0894 6.17105 6.11666 6.40437C6.1505 6.7461 6.21523 7.08375 6.30999 7.41281L6.33111 7.40713C6.67213 8.49999 7.33564 9.45294 8.22713 10.1302C9.11862 10.8075 10.1926 11.1747 11.2962 11.1793H11.3355H11.3603C11.9199 11.1823 12.4764 11.0916 13.0085 10.9109L15.0554 12.3276C15.1367 12.3841 15.2324 12.4141 15.3302 12.4136C15.428 12.4132 15.5235 12.3824 15.6043 12.3251C15.6852 12.2679 15.7479 12.1869 15.7843 12.0923C15.8207 11.9978 15.8292 11.8942 15.8087 11.7946L15.3055 9.33795C15.9731 8.55242 16.4091 7.58319 16.5612 6.54631C16.7134 5.50943 16.5754 4.44885 16.1636 3.49155C15.7519 2.53426 15.0839 1.72083 14.2396 1.14865C13.3953 0.576482 12.4106 0.269821 11.4032 0.26539H11.3788H11.3388C9.94892 0.25985 8.61387 0.829418 7.62731 1.84881C6.64074 2.86819 6.08347 4.25391 6.07807 5.70112Z" fill="#F44C9D"/>
<path d="M15.8469 12.0224C15.8672 12.122 15.8586 12.2255 15.8221 12.3199C15.7857 12.4143 15.723 12.4953 15.6422 12.5525C15.5614 12.6096 15.4661 12.6405 15.3684 12.641C15.2707 12.6415 15.175 12.6118 15.0936 12.5555L15.0343 12.5145C15.1012 12.4551 15.1512 12.3778 15.1789 12.2909C15.2066 12.2041 15.211 12.111 15.1916 12.0217L14.6884 9.56503C15.3402 8.79777 15.7714 7.85495 15.9328 6.84444C16.0941 5.83393 15.979 4.79654 15.6006 3.85096C15.2222 2.90539 14.5958 2.08981 13.7932 1.49755C12.9905 0.905293 12.0439 0.560266 11.0617 0.50195C11.1655 0.495505 11.27 0.492851 11.3756 0.49323H11.4152H11.4396C12.4471 0.497298 13.4321 0.803697 14.2767 1.37573C15.1212 1.94776 15.7895 2.76117 16.2015 3.71853C16.6135 4.6759 16.7517 5.73663 16.5995 6.77369C16.4474 7.81074 16.0114 8.78014 15.3437 9.56579L15.8469 12.0224Z" fill="#F178B6"/>
<path d="M11.5689 0.265384C11.7845 0.266352 11.9999 0.281038 12.2137 0.309361C11.528 0.395552 10.8653 0.621946 10.2638 0.975542C9.66232 1.32914 9.13383 1.80297 8.70869 2.36983C8.28354 2.93669 7.97012 3.58542 7.78642 4.27876C7.60272 4.9721 7.55236 5.69639 7.63823 6.41005C7.67179 6.7518 7.7364 7.08946 7.8312 7.41849L7.85232 7.41281C8.15935 8.39597 8.72804 9.26822 9.49229 9.92818C10.2565 10.5881 11.185 11.0087 12.1697 11.141C10.9645 11.2913 9.74653 11.0013 8.72389 10.3204C7.70126 9.63954 6.93737 8.61008 6.56272 7.40788L6.5416 7.41357C6.4468 7.08453 6.38219 6.74687 6.34864 6.40512C6.25574 5.6352 6.32154 4.85349 6.54165 4.11213C6.76176 3.37077 7.13113 2.68679 7.62512 2.10579C8.11911 1.52479 8.72638 1.06012 9.40644 0.74277C10.0865 0.425417 10.8237 0.262672 11.5689 0.265384Z" fill="#DB438C"/>
<path d="M15.4512 12.6806C15.3036 12.6803 15.1594 12.6344 15.0368 12.5487L13.0919 11.2024C12.5699 11.3661 12.0274 11.4479 11.4822 11.4451H11.4604H11.4436C11.4353 11.4451 11.4273 11.4451 11.4182 11.4451C10.3012 11.4425 9.21163 11.0849 8.29514 10.4201C7.37866 9.75526 6.67895 8.81492 6.28961 7.72481L6.2583 7.73315L6.18948 7.48976C6.09048 7.14556 6.02271 6.79245 5.98705 6.43507C5.95816 6.19133 5.94417 5.94593 5.94518 5.70035C5.95574 2.55257 8.41916 0 11.4393 0H11.5259C14.5562 0.0125107 17.012 2.5901 17 5.74546C16.9953 7.08828 16.5368 8.38653 15.7049 9.41263L16.1815 11.74C16.2047 11.8534 16.2032 11.9707 16.1773 12.0834C16.1513 12.1962 16.1015 12.3014 16.0316 12.3916C15.9616 12.4818 15.8732 12.5545 15.7728 12.6046C15.6724 12.6546 15.5625 12.6807 15.4512 12.681V12.6806ZM13.1701 10.6186L15.3201 12.1066C15.3592 12.1336 15.405 12.1479 15.4519 12.1476C15.4988 12.1474 15.5445 12.1326 15.5833 12.1052C15.6221 12.0778 15.6522 12.039 15.6698 11.9938C15.6874 11.9485 15.6916 11.8989 15.682 11.8511L15.1519 9.26288L15.2374 9.16241C16.0398 8.21902 16.4847 7.0037 16.4892 5.74357C16.5001 2.88126 14.2722 0.543269 11.5237 0.530759H11.4396C10.1207 0.53075 8.85543 1.07504 7.92106 2.04441C6.9867 3.01378 6.45936 4.32922 6.45454 5.70262C6.45372 5.92642 6.46661 6.15005 6.49313 6.37214V6.37782C6.51724 6.61762 6.55726 6.85539 6.61292 7.08942L6.62311 7.08677L6.69593 7.32409C7.01868 8.36479 7.64946 9.27243 8.49792 9.917C9.34637 10.5616 10.369 10.91 11.4192 10.9124H11.4324C11.4407 10.9124 11.4491 10.9124 11.4578 10.9124H11.4797C12.0131 10.9155 12.5435 10.8293 13.0507 10.6573L13.1701 10.6186Z" fill="#385868"/>
<path d="M6.22847 6.03091H3.14392V6.56281H6.22847V6.03091Z" fill="#385868"/>
<path d="M7.30361 8.85342H4.21869V9.38532H7.30361V8.85342Z" fill="#385868"/>
<path d="M6.4622 7.39346H1.50806V7.92536H6.4622V7.39346Z" fill="#385868"/>
<path d="M12.0928 4.05954H9.00824V4.59144H12.0928V4.05954Z" fill="#385868"/>
<path d="M12.0932 6.88205H9.00824V7.41395H12.0932V6.88205Z" fill="#385868"/>
<path d="M13.9624 5.42206H9.00824V5.95395H13.9624V5.42206Z" fill="#385868"/>
</g>
<defs>
<clipPath id="clip0_12_3198">
<rect width="17" height="15" fill="white"/>
</clipPath>
</defs>
</svg>
