<svg width="112" height="81" viewBox="0 0 112 81" fill="none" xmlns="http://www.w3.org/2000/svg">
<g clip-path="url(#clip0_2_204)">
<path d="M29.7567 73.5464L32.4033 78.7284L33.5057 78.1568L30.7647 72.7904" fill="#F96440"/>
<path opacity="0.2" d="M31.0535 73.8108L32.2606 76.1763L31.0754 76.5833L30.0455 74.568L31.0535 73.8108Z" fill="#463E3B"/>
<path d="M33.783 78.2473L32.1305 79.1042L29.3423 73.645L29.8935 73.3586L32.3975 78.2635L32.9487 77.9771L30.3492 72.889L30.9004 72.6026L33.783 78.2473Z" fill="#314E5D"/>
<path d="M27.3619 76.8952L52.8769 63.659C53.3771 63.3996 53.8216 63.0435 54.1851 62.611C54.5487 62.1785 54.8241 61.6781 54.9957 61.1383C55.1674 60.5985 55.2318 60.03 55.1853 59.4651C55.1389 58.9002 54.9824 58.3501 54.725 57.8462L32.2743 13.8948C32.0169 13.3909 31.6635 12.9429 31.2343 12.5766C30.8051 12.2102 30.3085 11.9327 29.7728 11.7598C29.2372 11.5868 28.6729 11.5219 28.1124 11.5687C27.5518 11.6155 27.0059 11.7732 26.5058 12.0326L0.990756 25.2653C0.634009 25.4505 0.364858 25.7708 0.242501 26.1559C0.120143 26.541 0.154601 26.9594 0.338295 27.3189L25.324 76.2377C25.5077 76.5972 25.8256 76.8684 26.2078 76.9917C26.59 77.115 27.0051 77.0803 27.3619 76.8952Z" fill="#E8F0F9"/>
<path d="M26.6013 12.2181L1.08634 25.4497C0.862713 25.5655 0.671296 25.7356 0.529434 25.9448C0.387572 26.154 0.299749 26.3955 0.273926 26.6475C0.380955 26.5431 0.502713 26.4551 0.635253 26.3866L26.1503 13.1539C26.6504 12.8944 27.1963 12.7368 27.7569 12.69C28.3174 12.6432 28.8817 12.7081 29.4173 12.881C29.953 13.0539 30.4496 13.3315 30.8788 13.6978C31.308 14.0642 31.6614 14.5121 31.9188 15.0161L54.3695 58.9721C54.6342 59.4895 54.7919 60.0556 54.8331 60.6362C54.8742 61.2169 54.7979 61.7998 54.6088 62.3499C55.0174 61.7131 55.2522 60.9791 55.2894 60.2218C55.3265 59.4644 55.1648 58.7106 54.8206 58.0364L32.3699 14.0803C32.1125 13.5764 31.7591 13.1284 31.3299 12.7621C30.9007 12.3958 30.4041 12.1182 29.8684 11.9453C29.3327 11.7723 28.7685 11.7074 28.2079 11.7542C27.6474 11.8011 27.1015 11.9587 26.6013 12.2181Z" fill="white"/>
<path d="M2.12772 24.9093L1.45339 25.2572C1.27685 25.3493 1.12004 25.4755 0.991924 25.6287C0.86381 25.7818 0.766903 25.9589 0.706739 26.1499C0.646575 26.3408 0.624333 26.5418 0.641284 26.7414C0.658236 26.941 0.714049 27.1352 0.805533 27.3131L25.7855 76.232C25.8763 76.4101 26.0011 76.5684 26.1528 76.6979C26.3044 76.8274 26.4798 76.9255 26.669 76.9866C26.8583 77.0478 27.0576 77.0708 27.2557 77.0543C27.4538 77.0378 27.6467 76.9822 27.8234 76.8906L28.4977 76.5427L2.12772 24.9093Z" fill="#BCD9EA"/>
<path d="M53.1635 63.986L27.6427 77.2176C27.2126 77.4401 26.7125 77.4815 26.2521 77.3328C25.7917 77.1841 25.4087 76.8574 25.1871 76.4244L0.201395 27.5067C-0.0194241 27.0733 -0.0605649 26.5694 0.0870038 26.1054C0.234572 25.6415 0.558792 25.2555 0.988491 25.0323L26.5035 11.7995C27.5874 11.2405 28.8469 11.1369 30.0064 11.5116C31.1658 11.8863 32.1307 12.7086 32.6898 13.7986L55.1404 57.7546C55.695 58.8457 55.7984 60.1137 55.4279 61.2813C55.0575 62.449 54.2434 63.4214 53.1635 63.986ZM1.27272 25.5877C0.989091 25.7352 0.77514 25.9901 0.677839 26.2964C0.580537 26.6027 0.607836 26.9354 0.753743 27.2215L25.7383 76.1392C25.8847 76.425 26.1376 76.6406 26.4416 76.7386C26.7456 76.8367 27.0758 76.8092 27.3596 76.6621L52.8747 63.4271C53.8106 62.9402 54.5168 62.0991 54.8382 61.0884C55.1596 60.0776 55.0701 58.9796 54.5892 58.0352L32.1386 14.0827C31.6554 13.1395 30.8207 12.428 29.8176 12.1041C28.8145 11.7802 27.7249 11.8704 26.7877 12.355L1.27272 25.5877Z" fill="#314E5D"/>
<path opacity="0.2" d="M36.9383 33.6268L33.8566 30.5471L28.8982 25.59L28.7888 25.481C28.5861 25.2785 28.3119 25.1653 28.0264 25.1664C27.741 25.1675 27.4676 25.2827 27.2664 25.4868L27.1583 25.597L11.8778 41.1186L11.7696 41.2346C11.5686 41.4389 11.4564 41.7152 11.4574 42.0028C11.4585 42.2905 11.5729 42.5659 11.7754 42.7687L15.8501 46.8421L19.8155 50.7997L19.9306 50.9087C20.1333 51.1112 20.4075 51.2243 20.693 51.2232C20.9784 51.2222 21.2518 51.1069 21.453 50.9029L36.9498 35.1551C37.1482 34.9503 37.2584 34.6748 37.2562 34.3886C37.2541 34.1023 37.1398 33.8285 36.9383 33.6268Z" fill="#463E3B"/>
<path d="M28.8712 24.523L11.4205 39.299C11.1306 39.5445 11.093 39.9804 11.3367 40.2727L19.2237 49.7307C19.4674 50.0229 19.9 50.0607 20.19 49.8152L37.6406 35.0392C37.9306 34.7936 37.9682 34.3577 37.7245 34.0655L29.8375 24.6075C29.5938 24.3153 29.1612 24.2774 28.8712 24.523Z" fill="white"/>
<g opacity="0.2">
<path opacity="0.2" d="M24.8361 45.8797L20.6095 49.4604C20.4856 49.5656 20.3424 49.6452 20.1879 49.6945C20.0334 49.7439 19.8708 49.762 19.7094 49.7479C19.548 49.7338 19.3909 49.6877 19.2472 49.6123C19.1035 49.5369 18.976 49.4336 18.8719 49.3085L11.6856 40.6907C11.6583 40.6586 11.6333 40.6245 11.6108 40.5887C13.0608 40.8948 14.6349 40.8693 16.1205 40.7731C16.9111 40.7209 17.7085 40.6571 18.4933 40.7522C20.5428 41.0027 22.3356 42.3338 23.6025 43.9734C24.0636 44.5746 24.4761 45.2121 24.8361 45.8797Z" fill="#DED6D3"/>
</g>
<path d="M20.4312 49.9764C20.1514 50.12 19.8316 50.1638 19.5239 50.1006C19.2162 50.0375 18.9389 49.871 18.7373 49.6285L11.3519 40.7731C11.2345 40.6325 11.1457 40.4699 11.0907 40.2948C11.0356 40.1196 11.0154 39.9352 11.0311 39.7521C11.0468 39.569 11.0982 39.3909 11.1822 39.2278C11.2663 39.0648 11.3815 38.92 11.5211 38.8018L28.3735 24.5336C28.5126 24.4144 28.6738 24.3242 28.8477 24.2682C29.0217 24.2122 29.2049 24.1916 29.3869 24.2074C29.5688 24.2233 29.7458 24.2753 29.9076 24.3606C30.0695 24.4458 30.2129 24.5626 30.3297 24.7041L37.715 33.5584C37.8325 33.699 37.9212 33.8615 37.9763 34.0367C38.0313 34.2118 38.0516 34.3962 38.0359 34.5793C38.0202 34.7624 37.9688 34.9405 37.8847 35.1036C37.8006 35.2666 37.6855 35.4114 37.5459 35.5296L20.6912 49.7989C20.6114 49.8677 20.5242 49.9272 20.4312 49.9764ZM28.9143 24.9198C28.8633 24.9463 28.8154 24.9786 28.7716 25.016L11.9204 39.283C11.7649 39.4151 11.6677 39.6039 11.6503 39.808C11.6328 40.0122 11.6964 40.2149 11.8272 40.3718L19.2171 49.2261C19.3482 49.3828 19.5355 49.4807 19.7381 49.4983C19.9407 49.5159 20.142 49.4518 20.2977 49.3201L37.1443 35.0495C37.2998 34.9175 37.3969 34.7287 37.4144 34.5246C37.4319 34.3204 37.3682 34.1176 37.2375 33.9607L29.8521 25.1064C29.7403 24.9724 29.5866 24.8807 29.4162 24.8461C29.2458 24.8116 29.0689 24.8363 28.9143 24.9163V24.9198Z" fill="#314E5D"/>
<path opacity="0.2" d="M23.2262 14.8422C23.0574 14.5116 22.7652 14.2621 22.4139 14.1486C22.0626 14.0351 21.6809 14.0669 21.3528 14.2369L20.3367 14.7645C20.0491 14.9149 19.8226 15.162 19.6965 15.4628C19.5705 15.7637 19.5527 16.0995 19.6463 16.4122C19.6568 16.6079 19.7081 16.7991 19.797 16.9734L45.6469 67.5922C45.7306 67.7563 45.8456 67.9023 45.9854 68.0215C46.1251 68.1408 46.2869 68.2311 46.4614 68.2872C46.6359 68.3434 46.8196 68.3642 47.0021 68.3486C47.1846 68.333 47.3623 68.2812 47.5249 68.1963L48.541 67.6687C48.8644 67.4153 49.0938 67.0597 49.1923 66.659C49.2909 66.2584 49.2527 65.836 49.0841 65.4598L23.2262 14.8422Z" fill="#463E3B"/>
<path d="M22.2932 13.5197L21.4132 13.976C20.6928 14.3496 20.4092 15.241 20.78 15.9671L46.561 66.4509C46.9317 67.1769 47.8164 67.4626 48.5369 67.089L49.4168 66.6327C50.1373 66.2591 50.4209 65.3677 50.0501 64.6417L24.2691 14.1578C23.8983 13.4318 23.0137 13.1461 22.2932 13.5197Z" fill="#938D35"/>
<path d="M22.5473 13.7418L49.5283 66.5683C49.515 66.5769 49.5012 66.5847 49.4869 66.5915L48.9783 66.8559L21.9938 14.0224L22.4184 13.8021C22.4598 13.7804 22.5028 13.7603 22.5473 13.7418Z" fill="#DAE23B"/>
<path d="M20.8312 14.2459L20.648 14.3409L47.7727 67.456L47.9559 67.361L20.8312 14.2459Z" fill="#463E3B"/>
<path d="M21.4757 14.1455L21.2925 14.2405L48.4172 67.3556L48.6004 67.2606L21.4757 14.1455Z" fill="#463E3B"/>
<path d="M22.0256 13.8594L21.8424 13.9543L48.9671 67.0694L49.1503 66.9744L22.0256 13.8594Z" fill="#463E3B"/>
<path d="M22.5773 13.5742L22.3941 13.6692L49.5188 66.7843L49.702 66.6893L22.5773 13.5742Z" fill="#463E3B"/>
<path d="M23.1289 13.2891L22.9457 13.384L50.0704 66.4991L50.2536 66.4042L23.1289 13.2891Z" fill="#463E3B"/>
<path d="M49.5963 67.0055L48.5802 67.533C48.1791 67.7405 47.7127 67.7792 47.2834 67.6405C46.854 67.5018 46.4969 67.1971 46.2902 66.7933L20.4312 16.1745C20.2253 15.7703 20.1869 15.3003 20.3246 14.8677C20.4622 14.4351 20.7646 14.0752 21.1653 13.867L22.1814 13.3394C22.5825 13.1319 23.0489 13.0933 23.4782 13.232C23.9076 13.3707 24.2647 13.6754 24.4714 14.0792L50.3247 64.7026C50.5296 65.1056 50.568 65.5739 50.4315 66.0053C50.295 66.4367 49.9948 66.7963 49.5963 67.0055ZM21.4484 14.4224C21.1944 14.5546 21.0028 14.7828 20.9152 15.057C20.8277 15.3312 20.8514 15.6291 20.9812 15.8858L46.8345 66.508C46.966 66.7646 47.1931 66.9582 47.466 67.0462C47.7389 67.1343 48.0353 67.1096 48.2902 66.9776L49.3063 66.45C49.561 66.3176 49.7531 66.0888 49.8404 65.8138C49.9278 65.5388 49.9033 65.24 49.7723 64.9832L23.9202 14.3644C23.7887 14.1078 23.5617 13.9142 23.2887 13.8262C23.0158 13.7382 22.7194 13.7628 22.4645 13.8948L21.4484 14.4224Z" fill="#314E5D"/>
<path d="M92.4607 0.368744H40.1546C38.5448 0.368744 37.2398 1.68374 37.2398 3.30587V77.504C37.2398 79.1261 38.5448 80.4411 40.1546 80.4411H92.4607C94.0705 80.4411 95.3755 79.1261 95.3755 77.504V3.30587C95.3755 1.68374 94.0705 0.368744 92.4607 0.368744Z" fill="#1DCDFF"/>
<path d="M95.3755 50.4854V75.6475C95.3755 78.2959 94.1293 80.4423 92.5919 80.4423H40.0234C38.486 80.4423 37.2398 78.2959 37.2398 75.6475V61.0941C40.784 65.1038 44.8184 67.809 48.9565 69.4892C53.9529 71.5207 59.1116 72.1133 64.2438 72.2002C70.3795 72.3057 76.621 71.6703 82.3976 68.1117C87.6944 64.8475 92.6034 58.8492 95.3755 50.4854Z" fill="#1AB5E1"/>
<path d="M58.2589 0.570491C52.7826 2.15327 45.1752 0.626149 40.448 6.44243C38.2041 9.20098 37.6529 14.5488 37.2916 18.9725L37.2985 6.59085C37.2985 5.00459 37.3295 3.27339 37.9256 2.06862C38.6644 0.569332 39.9532 0.454537 41.0901 0.455696C46.6757 0.463813 52.7826 -0.579777 58.2589 0.570491Z" fill="#4ED9FF"/>
<path d="M92.4055 0.463821H40.0993C38.4895 0.463821 37.1845 1.77882 37.1845 3.40095V77.5991C37.1845 79.2212 38.4895 80.5362 40.0993 80.5362H92.4055C94.0153 80.5362 95.3203 79.2212 95.3203 77.5991V3.40095C95.3203 1.77882 94.0153 0.463821 92.4055 0.463821Z" stroke="#314E5D" stroke-width="8" stroke-miterlimit="10"/>
<path d="M88.1122 5.64583H44.5618C43.5539 5.64583 42.7368 6.46919 42.7368 7.48487V72.7522C42.7368 73.7678 43.5539 74.5912 44.5618 74.5912H88.1122C89.1201 74.5912 89.9372 73.7678 89.9372 72.7522V7.48487C89.9372 6.46919 89.1201 5.64583 88.1122 5.64583Z" fill="white"/>
<path d="M89.8797 7.60198V20.9878H42.6804V7.60198C42.6804 6.57462 43.3559 5.74671 44.1902 5.74671H88.3757C89.2042 5.74207 89.8797 6.57462 89.8797 7.60198Z" fill="#EA4583"/>
<path d="M88.0558 5.53104H44.5055C43.4975 5.53104 42.6804 6.3544 42.6804 7.37007V73.136C42.6804 74.1516 43.4975 74.975 44.5055 74.975H88.0558C89.0637 74.975 89.8808 74.1516 89.8808 73.136V7.37007C89.8808 6.3544 89.0637 5.53104 88.0558 5.53104Z" stroke="#314E5D" stroke-width="8" stroke-miterlimit="10"/>
<path d="M81.6577 14.6601H50.8252V17.3456H81.6577V14.6601Z" fill="white"/>
<path d="M49.8644 34.6681H64.9492V34.0292H49.8644V34.6681Z" fill="#AFE6FF"/>
<path d="M49.8656 36.0734L82.6957 36.0734V35.4345L49.8656 35.4345V36.0734Z" fill="#AFE6FF"/>
<path d="M49.8644 37.4788H64.9492V36.8399H49.8644V37.4788Z" fill="#AFE6FF"/>
<path d="M49.8656 38.883L82.6957 38.883V38.2441L49.8656 38.2441V38.883Z" fill="#AFE6FF"/>
<path d="M49.8644 40.2895H64.9492V39.6506H49.8644V40.2895Z" fill="#AFE6FF"/>
<path d="M49.8656 41.6938L82.6957 41.6938V41.0549L49.8656 41.0549V41.6938Z" fill="#AFE6FF"/>
<path d="M76.2723 9.9454L87.5966 9.9454V8.60265L76.2723 8.60265V9.9454Z" fill="#EEA248"/>
<path d="M63.3865 9.9454L74.7108 9.9454V8.60265L63.3865 8.60265V9.9454Z" fill="#EEA248"/>
<path d="M46.2488 10.5681C46.9581 10.5681 47.533 9.98872 47.533 9.27403C47.533 8.55935 46.9581 7.97998 46.2488 7.97998C45.5396 7.97998 44.9646 8.55935 44.9646 9.27403C44.9646 9.98872 45.5396 10.5681 46.2488 10.5681Z" fill="#EEA248"/>
<path d="M54.3844 30.3963C55.9612 30.3963 57.2394 29.1083 57.2394 27.5195C57.2394 25.9306 55.9612 24.6426 54.3844 24.6426C52.8077 24.6426 51.5295 25.9306 51.5295 27.5195C51.5295 29.1083 52.8077 30.3963 54.3844 30.3963Z" fill="#EA4583"/>
<path d="M79.316 24.9302H77.3206C76.3737 24.9302 75.606 25.7037 75.606 26.6579V28.6686C75.606 29.6228 76.3737 30.3963 77.3206 30.3963H79.316C80.2629 30.3963 81.0306 29.6228 81.0306 28.6686V26.6579C81.0306 25.7037 80.2629 24.9302 79.316 24.9302Z" fill="#958FEE"/>
<path d="M65.9492 25.3407C65.989 25.2682 66.0474 25.2078 66.1182 25.1657C66.189 25.1236 66.2697 25.1014 66.352 25.1014C66.4342 25.1014 66.5149 25.1236 66.5857 25.1657C66.6566 25.2078 66.7149 25.2682 66.7547 25.3407L68.0021 27.5172L69.2495 29.6936C69.29 29.7643 69.3113 29.8446 69.3112 29.9263C69.311 30.008 69.2895 30.0881 69.2488 30.1587C69.208 30.2293 69.1495 30.2878 69.0791 30.3283C69.0087 30.3688 68.9289 30.3899 68.8479 30.3893H63.8572C63.7761 30.3899 63.6964 30.3688 63.626 30.3283C63.5556 30.2878 63.4971 30.2293 63.4563 30.1587C63.4156 30.0881 63.3941 30.008 63.3939 29.9263C63.3938 29.8446 63.4151 29.7643 63.4556 29.6936L64.703 27.5172L65.9492 25.3407Z" fill="#EEA248"/>
<path d="M109.72 20.6309L101.749 17.7257C100.465 17.258 99.0489 17.9271 98.5848 19.2201L79.3922 72.6887C78.9281 73.9817 79.592 75.4091 80.8753 75.8768L88.8462 78.782C90.1294 79.2497 91.5459 78.5806 92.01 77.2875L111.203 23.819C111.667 22.5259 111.003 21.0986 109.72 20.6309Z" fill="#E8F0F9"/>
<path d="M110.253 20.5239L108.388 19.8537C108.862 20.0244 109.25 20.3779 109.466 20.8364C109.681 21.295 109.708 21.8211 109.539 22.2992L90.1926 76.9648C90.0232 77.4427 89.6725 77.8334 89.2174 78.0508C88.7623 78.2682 88.2402 78.2947 87.7657 78.1243L89.6311 78.7946C90.1055 78.9649 90.6276 78.9384 91.0827 78.721C91.5378 78.5036 91.8886 78.113 92.0579 77.635L111.404 22.9729C111.488 22.736 111.525 22.4846 111.513 22.2333C111.501 21.9819 111.439 21.7355 111.332 21.508C111.226 21.2805 111.075 21.0765 110.89 20.9077C110.705 20.7388 110.488 20.6084 110.253 20.5239Z" fill="#BCD9EA"/>
<path opacity="0.2" d="M110.253 20.5239L101.189 17.2668C100.715 17.0964 100.192 17.1229 99.7373 17.3403C99.2822 17.5578 98.9315 17.9484 98.7621 18.4263L98.0233 20.5135C98.1927 20.0356 98.5435 19.6449 98.9985 19.4275C99.4536 19.2101 99.9758 19.1836 100.45 19.354L109.514 22.6111C109.989 22.7818 110.376 23.1353 110.592 23.5938C110.808 24.0524 110.834 24.5785 110.665 25.0566L111.404 22.9694C111.573 22.4914 111.547 21.9652 111.331 21.5066C111.115 21.0481 110.728 20.6946 110.253 20.5239Z" fill="#463E3B"/>
<path d="M108.214 24.7375L107.992 25.3643L110.065 26.1092L110.287 25.4823L108.214 24.7375Z" fill="#314E5D"/>
<path d="M107.622 26.4086L107.4 27.0355L109.473 27.7803L109.695 27.1534L107.622 26.4086Z" fill="#314E5D"/>
<path d="M107.03 28.0794L106.809 28.7063L108.881 29.4511L109.103 28.8242L107.03 28.0794Z" fill="#314E5D"/>
<path d="M104.748 29.3198L104.523 29.9454L108.659 31.453L108.884 30.8274L104.748 29.3198Z" fill="#314E5D"/>
<path d="M106.192 31.1072L105.97 31.7341L108.043 32.4789L108.265 31.852L106.192 31.1072Z" fill="#314E5D"/>
<path d="M105.602 32.7783L105.38 33.4052L107.452 34.15L107.674 33.5231L105.602 32.7783Z" fill="#314E5D"/>
<path d="M105.011 34.4495L104.789 35.0764L106.861 35.8212L107.083 35.1943L105.011 34.4495Z" fill="#314E5D"/>
<path d="M102.707 35.7115L102.482 36.3371L106.618 37.8447L106.843 37.2191L102.707 35.7115Z" fill="#314E5D"/>
<path d="M104.171 37.4769L103.95 38.1038L106.022 38.8486L106.244 38.2217L104.171 37.4769Z" fill="#314E5D"/>
<path d="M103.581 39.148L103.359 39.7749L105.431 40.5197L105.653 39.8928L103.581 39.148Z" fill="#314E5D"/>
<path d="M102.989 40.8192L102.767 41.4461L104.839 42.1909L105.061 41.564L102.989 40.8192Z" fill="#314E5D"/>
<path d="M100.325 41.7444L100.103 42.3713L104.248 43.861L104.47 43.2341L100.325 41.7444Z" fill="#314E5D"/>
<path d="M101.737 43.6983L101.515 44.3252L103.587 45.07L103.809 44.4431L101.737 43.6983Z" fill="#314E5D"/>
<path d="M101.145 45.3694L100.923 45.9963L102.995 46.7411L103.217 46.1142L101.145 45.3694Z" fill="#314E5D"/>
<path d="M100.554 47.0394L100.332 47.6663L102.405 48.4111L102.626 47.7842L100.554 47.0394Z" fill="#314E5D"/>
<path d="M98.2091 48.3467L97.9845 48.9723L102.121 50.4799L102.345 49.8543L98.2091 48.3467Z" fill="#314E5D"/>
<path d="M99.5076 49.9938L99.2857 50.6207L101.358 51.3655L101.58 50.7386L99.5076 49.9938Z" fill="#314E5D"/>
<path d="M98.9172 51.6638L98.6953 52.2907L100.768 53.0355L100.99 52.4086L98.9172 51.6638Z" fill="#314E5D"/>
<path d="M98.3253 53.335L98.1034 53.9619L100.176 54.7067L100.398 54.0798L98.3253 53.335Z" fill="#314E5D"/>
<path d="M95.9606 54.6623L95.736 55.288L99.8724 56.7956L100.097 56.1699L95.9606 54.6623Z" fill="#314E5D"/>
<path d="M97.4868 56.3635L97.2649 56.9904L99.3372 57.7352L99.5591 57.1083L97.4868 56.3635Z" fill="#314E5D"/>
<path d="M96.896 58.0346L96.6741 58.6615L98.7464 59.4063L98.9683 58.7794L96.896 58.0346Z" fill="#314E5D"/>
<path d="M96.3044 59.7047L96.0825 60.3316L98.1548 61.0764L98.3767 60.4495L96.3044 59.7047Z" fill="#314E5D"/>
<path d="M93.9185 61.0541L93.6939 61.6797L97.8303 63.1873L98.0548 62.5617L93.9185 61.0541Z" fill="#314E5D"/>
<path d="M95.2591 62.659L95.0372 63.2859L97.1095 64.0307L97.3314 63.4038L95.2591 62.659Z" fill="#314E5D"/>
<path d="M94.6671 64.3302L94.4452 64.9571L96.5175 65.7019L96.7394 65.075L94.6671 64.3302Z" fill="#314E5D"/>
<path d="M94.0763 66.0014L93.8544 66.6283L95.9268 67.3731L96.1487 66.7462L94.0763 66.0014Z" fill="#314E5D"/>
<path d="M91.4128 66.9266L91.1909 67.5535L95.3356 69.0431L95.5575 68.4162L91.4128 66.9266Z" fill="#314E5D"/>
<path d="M93.0313 68.9549L92.8094 69.5818L94.8817 70.3267L95.1036 69.6998L93.0313 68.9549Z" fill="#314E5D"/>
<path d="M92.4395 70.6258L92.2176 71.2527L94.2899 71.9975L94.5118 71.3706L92.4395 70.6258Z" fill="#314E5D"/>
<path d="M91.8474 72.2957L91.6255 72.9226L93.6978 73.6674L93.9197 73.0405L91.8474 72.2957Z" fill="#314E5D"/>
<path d="M89.184 73.2221L88.9621 73.849L93.1067 75.3386L93.3286 74.7117L89.184 73.2221Z" fill="#314E5D"/>
<path d="M102.749 18.067L82.2727 75.9173L82.6868 76.0661L103.164 18.2158L102.749 18.067Z" fill="white"/>
<path d="M79.8879 75.0573L79.2665 74.8335L99.4456 17.8187C99.5044 17.6526 99.6263 17.5167 99.7844 17.441C99.9426 17.3654 100.124 17.3561 100.289 17.4152L79.8879 75.0573Z" fill="white"/>
<path d="M100.292 17.4201L79.8896 75.0607L80.5118 75.2843L100.914 17.6437L100.292 17.4201Z" fill="white"/>
<path d="M100.913 17.6427L80.5105 75.2833L81.1326 75.5069L101.535 17.8663L100.913 17.6427Z" fill="white"/>
<path d="M87.0973 74.827C87.2809 74.3083 87.0125 73.7378 86.4977 73.5528C85.9829 73.3678 85.4167 73.6383 85.2331 74.157C85.0495 74.6758 85.318 75.2463 85.8328 75.4313C86.3475 75.6163 86.9137 75.3458 87.0973 74.827Z" fill="white"/>
<path d="M85.7198 75.7414C85.474 75.6534 85.2596 75.494 85.1036 75.2832C84.9477 75.0725 84.8572 74.8199 84.8437 74.5574C84.8301 74.2948 84.894 74.0342 85.0274 73.8082C85.1608 73.5823 85.3576 73.4013 85.593 73.288C85.8285 73.1747 86.0919 73.1343 86.3501 73.1718C86.6083 73.2093 86.8497 73.3231 87.0438 73.4988C87.2379 73.6744 87.3759 73.9041 87.4405 74.1588C87.5051 74.4135 87.4934 74.6818 87.4068 74.9297C87.2898 75.2628 87.0464 75.5353 86.7301 75.6875C86.4137 75.8397 86.0503 75.8591 85.7198 75.7414ZM86.3849 73.863C86.2619 73.8187 86.1286 73.8123 86.0018 73.8444C85.8751 73.8766 85.7607 73.9458 85.6731 74.0435C85.5855 74.1412 85.5286 74.2628 85.5096 74.3931C85.4906 74.5234 85.5103 74.6564 85.5664 74.7753C85.6224 74.8943 85.7122 74.9938 85.8244 75.0613C85.9366 75.1288 86.0661 75.1613 86.1966 75.1546C86.3271 75.1479 86.4527 75.1024 86.5575 75.0238C86.6623 74.9451 86.7416 74.837 86.7854 74.7129C86.8441 74.5467 86.8348 74.3638 86.7598 74.2044C86.6847 74.045 86.5499 73.9222 86.3849 73.863Z" fill="#314E5D"/>
<path d="M105.666 21.7031C105.849 21.1843 105.581 20.6138 105.066 20.4288C104.551 20.2438 103.985 20.5143 103.802 21.0331C103.618 21.5518 103.886 22.1223 104.401 22.3073C104.916 22.4923 105.482 22.2218 105.666 21.7031Z" fill="white"/>
<path d="M104.287 22.6193C104.041 22.5312 103.826 22.3718 103.671 22.161C103.515 21.9503 103.424 21.6977 103.411 21.4352C103.397 21.1727 103.461 20.912 103.594 20.6861C103.728 20.4601 103.924 20.2791 104.16 20.1658C104.395 20.0526 104.659 20.0121 104.917 20.0496C105.175 20.0872 105.417 20.2009 105.611 20.3766C105.805 20.5523 105.943 20.782 106.007 21.0366C106.072 21.2913 106.06 21.5596 105.974 21.8076C105.857 22.1406 105.613 22.4131 105.297 22.5654C104.981 22.7176 104.617 22.737 104.287 22.6193ZM104.952 20.7396C104.829 20.6954 104.695 20.689 104.569 20.7211C104.442 20.7532 104.328 20.8225 104.24 20.9202C104.152 21.0178 104.095 21.1395 104.076 21.2698C104.057 21.4 104.077 21.5331 104.133 21.652C104.189 21.7709 104.279 21.8704 104.391 21.938C104.503 22.0055 104.633 22.0379 104.763 22.0313C104.894 22.0246 105.02 21.979 105.124 21.9004C105.229 21.8218 105.308 21.7136 105.352 21.5896C105.411 21.4234 105.402 21.2405 105.327 21.0811C105.252 20.9217 105.117 20.7989 104.952 20.7396Z" fill="#314E5D"/>
<path d="M89.8865 79.3569L80.2204 75.8783C79.7436 75.7061 79.3539 75.3503 79.1369 74.8891C78.9199 74.4279 78.8933 73.8987 79.0628 73.4177L98.6251 18.1504C98.796 17.6698 99.149 17.2772 99.6068 17.0586C100.065 16.8399 100.59 16.813 101.067 16.9838L110.733 20.4625C111.21 20.6347 111.6 20.9904 111.817 21.4517C112.034 21.9129 112.06 22.442 111.891 22.923L92.3283 78.1904C92.1574 78.6709 91.8044 79.0635 91.3467 79.2822C90.889 79.5009 90.3639 79.5277 89.8865 79.3569ZM100.845 17.6158C100.532 17.5038 100.188 17.5214 99.8888 17.6647C99.5891 17.808 99.3581 18.0652 99.2465 18.3799L79.6842 73.6473C79.5742 73.962 79.5923 74.3077 79.7347 74.6089C79.877 74.91 80.1319 75.1422 80.4437 75.2544L90.1098 78.7331C90.4223 78.845 90.7661 78.8275 91.0658 78.6842C91.3655 78.5409 91.5965 78.2837 91.7081 77.9689L111.27 22.7016C111.382 22.3866 111.364 22.0402 111.222 21.7382C111.08 21.4362 110.824 21.2034 110.512 21.091L100.845 17.6158Z" fill="#314E5D"/>
<path opacity="0.1" d="M98.594 38.0435C98.6406 37.1638 98.8063 36.2945 99.0865 35.46C99.2976 34.7758 99.6328 34.1369 100.075 33.5758C100.528 33.0036 101.156 32.599 101.862 32.4255L101.908 32.6423C101.251 32.8058 100.665 33.1842 100.244 33.7184C99.8194 34.2587 99.4975 34.8736 99.2948 35.5319C99.0211 36.3473 98.8592 37.1967 98.8138 38.0563L98.594 38.0435Z" fill="black"/>
<path opacity="0.1" d="M91.6253 40.4681C91.4714 40.4128 91.3221 40.3453 91.1788 40.2663L91.2847 40.0715C92.7507 40.8832 94.776 40.3139 95.6195 38.861C95.8646 38.4389 96.0383 37.9229 96.1661 37.2376C96.3813 36.0781 96.364 35.0414 96.1131 34.1509C95.814 33.0899 95.1626 32.2168 94.3261 31.7553L94.4319 31.5605C95.3203 32.0498 96.0107 32.9716 96.3249 34.0906C96.5849 35.0182 96.6045 36.0862 96.3824 37.2782C96.2501 37.9901 96.0683 38.5293 95.807 38.9746C94.9912 40.3765 93.1328 41.0038 91.6253 40.4681Z" fill="black"/>
<path opacity="0.1" d="M92.0315 37.9449L92.0522 37.7246C92.9406 37.8116 93.8416 37.1147 94.0602 36.172C94.2605 35.3046 93.898 34.29 93.1569 33.6453L93.3008 33.4772C94.1063 34.1729 94.494 35.278 94.2754 36.223C94.0326 37.2689 93.0269 38.0423 92.0315 37.9449Z" fill="black"/>
<path opacity="0.1" d="M83.6807 64.2075C83.5235 64.1512 83.3748 64.0732 83.2389 63.9756L83.3666 63.7947C83.7832 64.095 84.3159 64.1727 84.904 64.0208C86.187 63.6892 87.5575 62.3383 88.3964 60.5793C88.775 59.785 89.0972 58.8492 89.4114 57.634C89.9384 55.5909 90.1789 53.8075 90.126 52.3442C90.0638 50.6049 89.5725 49.276 88.7785 48.7055L88.9062 48.5246C89.7566 49.1357 90.2801 50.5249 90.3457 52.3361C90.3987 53.8249 90.1559 55.6257 89.6242 57.6897C89.3066 58.9188 88.9798 59.8673 88.5955 60.6755C87.729 62.4902 86.3044 63.8909 84.9592 64.2388C84.5396 64.3581 84.0941 64.3472 83.6807 64.2075Z" fill="black"/>
<path opacity="0.1" d="M84.7727 59.8325L84.7554 59.611C85.7002 59.5345 86.9027 58.0503 87.3802 56.3643C87.8244 54.8012 87.6829 53.1327 87.0281 52.212L87.2065 52.0821C87.9096 53.07 88.0603 54.7746 87.592 56.4246C87.0822 58.2196 85.8176 59.7455 84.7727 59.8325Z" fill="black"/>
<path opacity="0.1" d="M99.9163 53.5629C99.0279 53.0735 98.3375 52.1517 98.0234 51.0327C97.7633 50.1051 97.7437 49.0371 97.9658 47.8451C98.0982 47.1332 98.28 46.594 98.5412 46.1487C99.4422 44.5972 101.606 43.992 103.172 44.8558L103.066 45.0506C101.601 44.2389 99.5745 44.8083 98.731 46.2612C98.4859 46.6833 98.3122 47.1993 98.1845 47.8846C97.9693 49.0441 97.9865 50.0807 98.2374 50.9713C98.5366 52.0323 99.1879 52.9054 100.024 53.3669L99.9163 53.5629Z" fill="black"/>
<path opacity="0.1" d="M101.047 51.6403C100.242 50.9446 99.8541 49.8396 100.073 48.8945C100.316 47.8509 101.321 47.0741 102.317 47.1715L102.296 47.3918C101.408 47.3048 100.507 48.0017 100.288 48.9444C100.088 49.8117 100.45 50.8263 101.191 51.4711L101.047 51.6403Z" fill="black"/>
<path opacity="0.1" d="M91.9774 75.4272C90.722 74.7315 89.7462 73.4316 89.3008 71.85C88.9326 70.5409 88.905 69.0196 89.2203 67.3278C89.4078 66.3178 89.6656 65.5549 90.0258 64.9252C91.2985 62.7348 94.3525 61.8814 96.563 63.1001L96.4572 63.2949C94.3479 62.1354 91.4308 62.947 90.2157 65.0342C89.8635 65.6407 89.6138 66.3805 89.4309 67.3649C89.1225 69.0219 89.1478 70.5096 89.5068 71.7851C89.936 73.3099 90.8727 74.568 92.0764 75.2278L91.9774 75.4272Z" fill="black"/>
<path opacity="0.1" d="M93.5953 72.693C92.4665 71.7109 91.9141 70.1571 92.2214 68.8259C92.5666 67.3556 93.9739 66.2749 95.3697 66.406L95.349 66.6263C94.0591 66.4999 92.753 67.5099 92.4365 68.8758C92.1466 70.1281 92.6667 71.5938 93.7392 72.5237L93.5953 72.693Z" fill="black"/>
<path d="M101.062 18.8727L81.4727 74.2165L82.0949 74.4401L101.684 19.0963L101.062 18.8727Z" fill="#314E5D"/>
<path opacity="0.1" d="M92.2318 57.5227C91.9775 56.8177 91.6564 55.9411 91.6829 55.0529C91.7001 54.3571 91.913 53.6904 92.1305 53.0457C92.2456 52.6816 92.3733 52.3059 92.4584 51.9314C92.6811 50.8773 92.6209 49.7824 92.2842 48.7595C91.9474 47.7366 91.3462 46.8226 90.5425 46.1116L90.6852 45.9435C91.5189 46.6812 92.1426 47.6294 92.4919 48.6906C92.8411 49.7518 92.9035 50.8877 92.6725 51.9812C92.585 52.3662 92.4608 52.7477 92.3388 53.1164C92.1316 53.7461 91.9188 54.3919 91.9027 55.0598C91.8819 55.9051 92.1903 56.7609 92.4377 57.4485L92.2318 57.5227Z" fill="black"/>
<path opacity="0.1" d="M100.524 30.1342C100.27 29.4292 99.9485 28.5526 99.975 27.6644C99.9922 26.9687 100.205 26.3019 100.423 25.6572C100.538 25.2931 100.665 24.9174 100.751 24.5429C100.973 23.4888 100.913 22.394 100.576 21.3711C100.24 20.3482 99.6383 19.4342 98.8346 18.7232L98.9773 18.555C99.811 19.2927 100.435 20.241 100.784 21.3022C101.133 22.3634 101.196 23.4992 100.965 24.5928C100.877 24.9777 100.753 25.3592 100.631 25.728C100.424 26.3576 100.211 27.0035 100.195 27.6714C100.174 28.5167 100.482 29.3724 100.73 30.06L100.524 30.1342Z" fill="black"/>
<path opacity="0.1" d="M106.697 34.4721C106.443 33.7671 106.122 32.8905 106.149 32.0023C106.166 31.3065 106.379 30.6398 106.596 29.9951C106.711 29.631 106.839 29.2553 106.924 28.8808C107.147 27.8267 107.087 26.7318 106.75 25.7089C106.413 24.686 105.812 23.772 105.008 23.061L105.151 22.8929C105.985 23.6306 106.608 24.5788 106.958 25.64C107.307 26.7012 107.369 27.8371 107.138 28.9306C107.051 29.3156 106.926 29.6971 106.804 30.0658C106.597 30.6955 106.384 31.3413 106.368 32.0092C106.348 32.8545 106.656 33.7103 106.903 34.3979L106.697 34.4721Z" fill="black"/>
<path opacity="0.1" d="M83.7325 76.7723L83.5472 76.6564C83.9649 75.9943 83.92 75.149 83.8763 74.3373C83.8648 74.1251 83.8533 73.9129 83.8498 73.7042C83.8529 72.9903 83.9041 72.2775 84.0029 71.5706C84.1651 70.2116 84.3193 68.9268 83.8268 67.7302C83.4712 66.8663 82.7912 66.152 82.1859 65.5514L82.3401 65.3937C82.9626 66.0094 83.6588 66.7434 84.0305 67.6455C84.546 68.8967 84.3757 70.2696 84.2227 71.5973C84.1232 72.2933 84.0705 72.9952 84.065 73.6984C84.065 73.9036 84.08 74.1123 84.0903 74.3222C84.141 75.1721 84.1881 76.0499 83.7325 76.7723Z" fill="black"/>
</g>
<defs>
<clipPath id="clip0_2_204">
<rect width="112" height="81" fill="white"/>
</clipPath>
</defs>
</svg>
