<svg width="73" height="84" viewBox="0 0 73 84" fill="none" xmlns="http://www.w3.org/2000/svg">
<g clip-path="url(#clip0_3_2262)">
<path opacity="0.15" d="M67.529 7.27632H29.4184C26.673 7.27632 24.4475 9.48369 24.4475 12.2066V77.5331C24.4475 80.256 26.673 82.4634 29.4184 82.4634H67.529C70.2744 82.4634 72.5 80.256 72.5 77.5331V12.2066C72.5 9.48369 70.2744 7.27632 67.529 7.27632Z" fill="#676A72"/>
<path opacity="0.15" d="M8.29193 4.40031C6.97355 4.40031 5.70917 4.91976 4.77694 5.84437C3.84471 6.76898 3.32098 8.02302 3.32098 9.33061V74.6571C3.32098 77.3688 3.48668 79.5874 6.2207 79.5874L5.80646 82.8743C8.54048 82.8743 12.0201 77.3688 12.0201 74.6571L13.2629 9.33061C13.2629 8.68316 13.1343 8.04204 12.8845 7.44387C12.6347 6.8457 12.2685 6.30219 11.8069 5.84437C11.3453 5.38655 10.7973 5.02338 10.1942 4.77561C9.59113 4.52784 8.94472 4.40031 8.29193 4.40031Z" fill="#676A72"/>
<path d="M65.114 4.19899H21.6431C19.4948 4.19899 17.7533 5.92626 17.7533 8.05695V75.939C17.7533 78.0697 19.4948 79.7969 21.6431 79.7969H65.114C67.2622 79.7969 69.0037 78.0697 69.0037 75.939V8.05695C69.0037 5.92626 67.2622 4.19899 65.114 4.19899Z" fill="#676A72"/>
<path d="M36.8708 78.0384C36.2721 78.6688 35.5289 79.1466 34.7043 79.4312C33.551 79.7571 32.3521 79.8959 31.1542 79.8421L26.7176 79.8709C23.9463 79.8709 20.3507 80.5406 18.6357 78.3794C17.393 76.7976 17.7451 73.8025 17.7451 71.8057C17.7451 51.7257 17.7533 31.6457 17.7699 11.5657C17.7699 9.96741 17.3847 8.27879 18.2339 6.91885C19.8039 4.41261 22.0739 4.16609 25.0482 4.19485L31.9288 4.24416C32.1383 4.21788 32.351 4.23577 32.553 4.29666C32.7551 4.35755 32.9418 4.46006 33.1011 4.5975C33.3994 4.95083 33.3041 5.47262 33.184 5.91635C31.817 10.9863 29.3149 15.3661 26.9952 20.017C23.0308 27.9836 22.7284 36.4719 23.3125 45.178C23.5859 49.2537 24.0375 53.4773 25.7524 57.2367C27.3556 60.7454 30.3961 62.9681 33.4615 65.1457C37.5667 68.0505 41.2369 73.5067 36.8708 78.0384Z" fill="#818487"/>
<path d="M69.1778 8.67735L68.3493 73.6793C68.3493 77.0606 66.3195 79.7969 63.7926 79.7969H48.6353C50.342 79.7969 53.6063 72.8123 54.2277 71.5798C59.5507 60.9961 60.4206 48.317 59.994 36.6856C59.7575 31.652 59.257 26.6341 58.4944 21.6523C58.0231 18.6765 57.8083 15.6664 57.8523 12.6545C57.8772 11.7875 58.4447 4.19899 59.4389 4.19899H63.8257C66.3153 4.19899 69.1778 5.29598 69.1778 8.67735Z" fill="#4E515C"/>
<path d="M24.6174 3.87436H23.3747V79.4723H24.6174V3.87436Z" fill="#515862"/>
<path opacity="0.15" d="M23.4119 4.40031H22.5834V79.9983H23.4119V4.40031Z" fill="#2B0F2B"/>
<path d="M69.0079 50.1453H17.7533L17.4261 37.4374H69.0079V50.1453Z" fill="white"/>
<path d="M69.1777 37.6059L68.3492 49.492H17.5089L17.455 47.5363H60.9798C62.2333 47.5363 63.4355 47.0424 64.3219 46.1632C65.2083 45.2841 65.7063 44.0917 65.7063 42.8484V37.195L69.1777 37.6059Z" fill="#CFE1F0"/>
<path d="M69.1777 53.9129V73.6793C69.1777 77.0606 67.7445 79.7969 65.9715 79.7969H65.2341V63.9173C65.2341 59.7019 66.8083 56 69.1777 53.9129Z" fill="#3E4250"/>
<path d="M65.1223 80.4132H21.6265C20.4304 80.4121 19.2836 79.9404 18.4379 79.1015C17.5921 78.2627 17.1165 77.1253 17.1154 75.939V8.05695C17.1165 6.87064 17.5921 5.73323 18.4379 4.89438C19.2836 4.05553 20.4304 3.58379 21.6265 3.5827H65.1223C66.3184 3.58379 67.4652 4.05553 68.3109 4.89438C69.1567 5.73323 69.6323 6.87064 69.6334 8.05695V75.9431C69.6312 77.1287 69.1551 78.265 68.3095 79.103C67.4638 79.941 66.3177 80.4121 65.1223 80.4132ZM21.6265 4.81528C20.76 4.81637 19.9293 5.15825 19.3166 5.76594C18.7039 6.37364 18.3592 7.19754 18.3581 8.05695V75.9431C18.3603 76.8018 18.7055 77.6246 19.3181 78.2314C19.9307 78.8382 20.7607 79.1796 21.6265 79.1806H65.1223C65.9888 79.1796 66.8195 78.8377 67.4322 78.23C68.0449 77.6223 68.3896 76.7984 68.3907 75.939V8.05695C68.3896 7.19754 68.0449 6.37364 67.4322 5.76594C66.8195 5.15825 65.9888 4.81637 65.1223 4.81528H21.6265Z" fill="#515862"/>
<path d="M65.549 11.3684H64.5797C64.1221 11.3684 63.7512 11.7363 63.7512 12.1901V20.9743C63.7512 21.4281 64.1221 21.796 64.5797 21.796H65.549C66.0066 21.796 66.3775 21.4281 66.3775 20.9743V12.1901C66.3775 11.7363 66.0066 11.3684 65.549 11.3684Z" fill="#3E4250"/>
<path d="M20.624 60.8975H20.1393C19.9106 60.8975 19.7251 61.0814 19.7251 61.3083V69.6118C19.7251 69.8387 19.9106 70.0226 20.1393 70.0226H20.624C20.8528 70.0226 21.0383 69.8387 21.0383 69.6118V61.3083C21.0383 61.0814 20.8528 60.8975 20.624 60.8975Z" fill="#A4A4A4"/>
<path d="M20.624 71.325H20.1393C19.9106 71.325 19.7251 71.509 19.7251 71.7359V72.2166C19.7251 72.4435 19.9106 72.6275 20.1393 72.6275H20.624C20.8528 72.6275 21.0383 72.4435 21.0383 72.2166V71.7359C21.0383 71.509 20.8528 71.325 20.624 71.325Z" fill="#A4A4A4"/>
<path d="M69.0037 49.5289H17.7533V50.7615H69.0037V49.5289Z" fill="#515862"/>
<path d="M69.0079 36.8211H17.4261V38.0537H69.0079V36.8211Z" fill="#515862"/>
<path d="M59.7039 0.291702H57.2764C56.1325 0.291702 55.2052 1.21144 55.2052 2.34599V81.0048C55.2052 82.1394 56.1325 83.0591 57.2764 83.0591H59.7039C60.8478 83.0591 61.7751 82.1394 61.7751 81.0048V2.34599C61.7751 1.21144 60.8478 0.291702 59.7039 0.291702Z" fill="#ED4043"/>
<path d="M59.3767 84H56.9492C56.2354 83.9989 55.5512 83.7172 55.0465 83.2166C54.5418 82.716 54.2577 82.0374 54.2566 81.3294V2.67058C54.2577 1.96263 54.5418 1.28399 55.0465 0.783395C55.5512 0.282799 56.2354 0.00108665 56.9492 0L59.3767 0C60.0905 0.00108665 60.7747 0.282799 61.2794 0.783395C61.7842 1.28399 62.0682 1.96263 62.0693 2.67058V81.3294C62.0682 82.0374 61.7842 82.716 61.2794 83.2166C60.7747 83.7172 60.0905 83.9989 59.3767 84ZM56.9492 1.23258C56.5647 1.23258 56.1959 1.38408 55.924 1.65376C55.6521 1.92344 55.4994 2.2892 55.4994 2.67058V81.3294C55.4994 81.7108 55.6521 82.0766 55.924 82.3462C56.1959 82.6159 56.5647 82.7674 56.9492 82.7674H59.3767C59.7612 82.7674 60.13 82.6159 60.4019 82.3462C60.6738 82.0766 60.8266 81.7108 60.8266 81.3294V2.67058C60.8266 2.2892 60.6738 1.92344 60.4019 1.65376C60.13 1.38408 59.7612 1.23258 59.3767 1.23258H56.9492Z" fill="#515862"/>
<path d="M56.7297 1.26953H56.3154V83.0591H56.7297V1.26953Z" fill="#515862"/>
<path opacity="0.35" d="M58.0428 1.26953H57.6286V83.0591H58.0428V1.26953Z" fill="#2B0F2B"/>
<path d="M58.4571 1.26953H58.0428V83.0591H58.4571V1.26953Z" fill="#515862"/>
<path d="M59.7703 1.26953H59.356V83.0591H59.7703V1.26953Z" fill="#515862"/>
<path d="M9.71697 74.2586V6.46694C9.70934 5.34735 9.25639 4.27601 8.45663 3.48586C7.65687 2.69571 6.57494 2.25064 5.4461 2.24742C4.31441 2.25067 3.23 2.698 2.42976 3.49169C1.62953 4.28539 1.17851 5.36093 1.17523 6.48337V74.275L4.37735 81.6088C4.46799 81.8146 4.61718 81.9897 4.80664 82.1127C4.9961 82.2357 5.21761 82.3012 5.44403 82.3012C5.67045 82.3012 5.89196 82.2357 6.08142 82.1127C6.27088 81.9897 6.42007 81.8146 6.51071 81.6088L9.71697 74.2586Z" fill="#FEC451"/>
<path d="M9.71695 7.78576V75.5774L7.0285 81.7403C6.89464 82.0456 6.67377 82.3055 6.39302 82.4881C6.11227 82.6707 5.78386 82.7679 5.44815 82.7679C5.11244 82.7679 4.78404 82.6707 4.50329 82.4881C4.22253 82.3055 4.00166 82.0456 3.8678 81.7403L1.17935 75.5774V68.6955C1.33328 68.6807 1.48569 68.6532 1.63502 68.6133C3.10559 68.26 4.23234 67.011 4.79571 65.6141C5.35909 64.2171 5.47093 62.7093 5.55793 61.2179C6.20829 50.2356 6.27871 39.2287 6.07573 28.2301C5.97631 22.9382 5.8189 17.6258 6.48998 12.3792C6.80781 9.72632 7.39062 7.11137 8.22981 4.57285C8.69788 4.9693 9.07334 5.46204 9.33015 6.01686C9.58695 6.57167 9.71894 7.17527 9.71695 7.78576Z" fill="#F7AC3D"/>
<path d="M9.71697 73.5436V74.2585L6.46515 81.6992C6.37917 81.8965 6.23687 82.0645 6.0558 82.1825C5.87472 82.3005 5.66278 82.3634 5.4461 82.3634C5.22943 82.3634 5.01748 82.3005 4.83641 82.1825C4.65533 82.0645 4.51303 81.8965 4.42706 81.6992L1.17523 74.2585V73.5436L3.39973 71.6537L5.43782 70.0103L7.47591 71.6537L9.71697 73.5436Z" fill="#EEC3A6"/>
<path d="M9.06245 73.5437V74.2586L5.77749 81.7608C5.69356 81.9497 5.55606 82.1103 5.38175 82.223C5.20743 82.3357 5.00382 82.3958 4.79573 82.3958C4.58763 82.3958 4.38402 82.3357 4.20971 82.223C4.03539 82.1103 3.8979 81.9497 3.81396 81.7608L7.09893 74.2421V73.5437L4.86615 71.6537L3.81396 70.832L4.79987 70.0432L6.83796 71.6866L9.06245 73.5437Z" fill="#DFAE8F"/>
<path d="M1.17523 17.8847H9.71697V12.6709H1.17523V17.8847Z" fill="white"/>
<path d="M9.06244 13.3241V18.5379H6.16272V13.3241H9.06244Z" fill="#CFE1F0"/>
<path d="M9.07902 73.7614L6.56041 71.7482C6.22865 71.4855 5.81675 71.3425 5.39224 71.3425C4.96773 71.3425 4.55582 71.4855 4.22407 71.7482L1.70545 73.7614L0.914246 72.8L3.43286 70.7868C3.98568 70.3488 4.67223 70.1102 5.37981 70.1102C6.08739 70.1102 6.77394 70.3488 7.32677 70.7868L9.84538 72.8L9.07902 73.7614Z" fill="#515862"/>
<path d="M9.66311 17.5971H1.12137V18.8297H9.66311V17.5971Z" fill="#515862"/>
<path d="M9.66726 6.48337V12.6709H1.17523V6.48337C1.17855 5.43432 1.57235 4.42343 2.28105 3.64469C2.98976 2.86595 3.96345 2.37422 5.01529 2.26385C5.14223 2.25718 5.26945 2.25718 5.39639 2.26385C5.54 2.26385 5.67808 2.26385 5.81064 2.26385C6.86546 2.37043 7.84316 2.86051 8.55528 3.63964C9.2674 4.41876 9.66351 5.43176 9.66726 6.48337Z" fill="#ED4043"/>
<path d="M9.66726 7.13246V13.3241H1.17523V10.8589C1.17523 11.0685 3.44115 10.6905 3.6607 10.6289C4.30772 10.4718 4.89762 10.1385 5.36386 9.6666C5.8301 9.19474 6.15415 8.60305 6.29945 7.95828C6.49282 6.90813 6.34789 5.82426 5.8852 4.86041C5.71122 4.44955 5.05671 2.86775 4.49748 3.01155C4.66767 2.96818 4.84069 2.93661 5.01529 2.91705C5.14223 2.91038 5.26945 2.91038 5.39639 2.91705C5.54 2.91705 5.67808 2.91705 5.81064 2.91705C6.86475 3.02355 7.84188 3.51305 8.5539 4.29131C9.26592 5.06957 9.66249 6.08156 9.66726 7.13246Z" fill="#B7202F"/>
<path d="M5.3922 83.0633C5.06414 83.0663 4.74256 82.9726 4.46822 82.7941C4.19389 82.6156 3.97915 82.3604 3.85121 82.0608L1.56457 76.8306C0.858921 75.2205 0.496466 73.4832 0.499964 71.7277V6.48337C0.499964 5.19648 1.01539 3.96229 1.93287 3.05232C2.85034 2.14235 4.0947 1.63113 5.3922 1.63113C6.68971 1.63113 7.93407 2.14235 8.85154 3.05232C9.76901 3.96229 10.2844 5.19648 10.2844 6.48337V71.7277C10.2814 73.4847 9.91189 75.2221 9.19912 76.8306L6.91248 82.0649C6.78528 82.3605 6.57347 82.6127 6.30325 82.7901C6.03303 82.9676 5.71628 83.0625 5.3922 83.0633ZM5.3922 2.87604C4.42678 2.87711 3.50102 3.25712 2.8172 3.93304C2.13338 4.60897 1.74708 5.52585 1.7427 6.48337V71.7277C1.74057 73.3139 2.06918 74.8833 2.70789 76.3375L4.99453 81.5719C5.02807 81.6494 5.08382 81.7155 5.15488 81.762C5.22593 81.8085 5.30917 81.8332 5.39427 81.8332C5.47938 81.8332 5.56261 81.8085 5.63367 81.762C5.70472 81.7155 5.76048 81.6494 5.79402 81.5719L8.08066 76.3375C8.7188 74.8832 9.04738 73.3138 9.04585 71.7277V6.48337C9.04147 5.52514 8.6546 4.60763 7.96988 3.9316C7.28516 3.25556 6.35835 2.87603 5.3922 2.87604Z" fill="#515862"/>
<path d="M9.66311 12.3833H1.12137V13.6158H9.66311V12.3833Z" fill="#515862"/>
<path d="M7.60016 20.4936H7.18591V67.0891H7.60016V20.4936Z" fill="#515862"/>
<path d="M5.62836 20.4936H5.21411V67.0891H5.62836V20.4936Z" fill="#515862"/>
<path d="M3.65656 20.4936H3.24231V67.0891H3.65656V20.4936Z" fill="#515862"/>
</g>
<defs>
<clipPath id="clip0_3_2262">
<rect width="72" height="84" fill="white" transform="translate(0.5)"/>
</clipPath>
</defs>
</svg>
