<svg width="53" height="79" viewBox="0 0 53 79" fill="none" xmlns="http://www.w3.org/2000/svg">
<g clip-path="url(#clip0_2_110)">
<path d="M16.2852 6.84899C15.7604 6.84899 15.2475 6.69408 14.8112 6.40386C14.3749 6.11363 14.0348 5.70112 13.834 5.21849C13.6332 4.73586 13.5807 4.20478 13.6831 3.69243C13.7854 3.18007 14.0381 2.70944 14.4092 2.34005C14.7802 1.97066 15.2529 1.7191 15.7676 1.61719C16.2822 1.51528 16.8157 1.56758 17.3005 1.76749C17.7853 1.96741 18.1996 2.30594 18.4911 2.7403C18.7827 3.17466 18.9383 3.68532 18.9383 4.20771C18.9374 4.90795 18.6576 5.57926 18.1602 6.0744C17.6629 6.56955 16.9885 6.84811 16.2852 6.84899ZM16.2852 3.56614C16.1577 3.56614 16.0331 3.60377 15.9271 3.67427C15.8212 3.74476 15.7386 3.84496 15.6898 3.9622C15.641 4.07943 15.6282 4.20843 15.6531 4.33288C15.678 4.45733 15.7394 4.57165 15.8295 4.66137C15.9196 4.7511 16.0344 4.8122 16.1594 4.83696C16.2845 4.86171 16.414 4.84901 16.5318 4.80045C16.6495 4.75189 16.7502 4.66966 16.821 4.56415C16.8918 4.45865 16.9296 4.33461 16.9296 4.20771C16.9296 4.12346 16.9129 4.04003 16.8806 3.9622C16.8482 3.88436 16.8007 3.81363 16.7409 3.75405C16.681 3.69448 16.61 3.64722 16.5318 3.61498C16.4536 3.58274 16.3698 3.56614 16.2852 3.56614Z" fill="#E7F6FF"/>
<path d="M21.0189 6.90232C21.5329 6.90232 21.9496 6.48749 21.9496 5.97579C21.9496 5.46408 21.5329 5.04926 21.0189 5.04926C20.5049 5.04926 20.0882 5.46408 20.0882 5.97579C20.0882 6.48749 20.5049 6.90232 21.0189 6.90232Z" fill="#E7F6FF"/>
<g opacity="0.5">
<path opacity="0.5" d="M34.5087 54.307V56.3417C33.9178 58.2131 32.9888 60.4027 31.7685 62.8174C31.2664 63.7756 30.7291 64.7871 30.1532 65.8269C30.5466 65.1604 30.9249 64.5088 31.2898 63.8589C30.8646 64.6621 30.4144 65.497 29.939 66.3452V63.179L30.0796 62.914L29.939 63.164V63.0473C30.151 62.6485 30.3575 62.2597 30.5583 61.8809C31.8824 59.2579 32.8649 56.9033 33.4441 54.9302C33.804 54.7286 34.1588 54.5203 34.5087 54.307Z" fill="#BBD2E5"/>
</g>
<path d="M43.3015 24.7563C43.2815 34.005 35.6653 41.5505 26.3786 41.5305C18.3357 41.5139 11.5698 35.8247 9.91772 28.2925C9.74705 27.3247 9.66248 26.3438 9.66497 25.3613C9.68505 16.1176 17.3012 8.56706 26.5862 8.58706C34.6208 8.60372 41.3749 14.2779 43.0421 21.7901C43.0415 21.794 43.0415 21.7979 43.0421 21.8018C43.2164 22.777 43.3033 23.7658 43.3015 24.7563Z" fill="white"/>
<path d="M26.5594 1.04151C10.9405 1.00818 1.21021 10.7934 1.17171 26.2028C1.16167 30.9654 3.68253 38.3943 8.02122 47.3663C9.983 51.1541 12.3733 55.3652 14.8841 59.5695C17.9674 64.7588 21.3336 69.9497 24.7014 74.719L26.3853 76.9653C26.9494 76.2637 27.5135 75.5655 28.0776 74.7256C31.4672 69.8314 34.8535 64.7938 37.9535 59.6195C40.4961 55.4218 42.7575 51.2241 44.7344 47.4463C49.2539 38.491 51.8065 31.0721 51.8166 26.3095C51.8651 11.3217 41.7566 1.07484 26.5594 1.04151ZM26.4707 41.6605C17.184 41.6405 9.60136 34.0616 9.62145 24.8147C9.64153 15.5677 17.2577 8.02548 26.5444 8.04548C35.831 8.06548 43.4137 15.646 43.3936 24.8913C43.3735 34.1366 35.7574 41.6855 26.4707 41.6605Z" fill="#F3AA9F"/>
<path d="M43.7769 49.6843C42.0394 52.9622 40.1028 56.49 37.9652 60.0161C34.8602 65.1904 31.4722 70.228 28.0893 75.1222C27.5252 75.9554 26.9611 76.6603 26.3954 77.3619L24.7064 75.1172C21.3386 70.3479 17.9724 65.157 14.8975 59.9695C12.3716 55.7601 9.9897 51.5524 8.03461 47.7663C3.68253 38.7909 1.16167 31.3604 1.17171 26.5977C1.1851 20.2387 2.84559 14.8395 5.89874 10.6901C4.69188 13.8196 4.05748 17.3841 4.04408 21.3135C4.03404 26.0761 6.5549 33.5067 10.8936 42.4771C12.8554 46.2632 15.2373 50.4759 17.7565 54.6803C20.8398 59.8678 24.2059 65.0587 27.5721 69.828L29.256 72.0743C29.8218 71.3728 30.3859 70.6746 30.95 69.8347C34.3379 64.9404 37.7259 59.9028 40.8259 54.7286C41.8637 53.0422 42.8429 51.3491 43.7769 49.6843Z" fill="#E1978F"/>
<path d="M26.3567 79L23.7488 75.5188C20.3709 70.7362 16.9596 65.472 13.8813 60.2928C11.245 55.8984 8.85968 51.6557 6.97991 48.0296L6.96652 48.0012C2.33323 38.4293 -0.0102019 31.1354 -0.00015859 26.3294C0.0165802 18.4323 2.51066 11.7949 7.19752 7.13061C11.8844 2.4663 18.5464 0 26.4756 0H26.5576C34.316 0.0166642 40.9529 2.56629 45.7352 7.37058C50.5175 12.1749 53.0166 18.7522 53.0015 26.4378C52.9915 31.292 50.4907 38.7826 45.7955 48.1012V48.1162C44.0312 51.4874 41.6627 55.9234 38.9794 60.3544C35.6551 65.8936 32.0981 71.1295 29.0584 75.5188C28.4809 76.3771 27.8984 77.1003 27.3359 77.8002L26.3567 79ZM25.6554 74.1674L26.4136 75.1789C26.6463 74.8723 26.8773 74.5523 27.1083 74.209C30.1296 69.823 33.6682 64.6338 36.9591 59.1496C39.6105 54.7752 41.9539 50.3826 43.7031 47.043C48.2427 38.0544 50.6464 30.9288 50.6564 26.4344C50.6882 12.0499 40.9998 2.36465 26.5526 2.33299H26.4756C11.6199 2.33299 2.37507 11.5216 2.34327 26.3294C2.33323 30.7205 4.65992 37.8577 9.07059 46.9731C10.9252 50.5542 13.2854 54.7469 15.9017 59.0996C18.9431 64.2255 22.316 69.4331 25.6554 74.1557V74.1674ZM26.504 42.962H26.4639C21.6735 42.9569 17.0814 41.0576 13.6977 37.6818C10.3141 34.306 8.41602 29.7303 8.42112 24.9613C8.42623 20.1923 10.3341 15.6207 13.725 12.2521C17.1159 8.88348 21.712 6.99388 26.5023 6.99897H26.5425C30.1141 7.00275 33.6042 8.06202 36.5704 10.0425C39.5367 12.0231 41.8455 14.8357 43.2044 18.1239C44.5634 21.4122 44.9111 25.0281 44.2037 28.5133C43.4962 31.9985 41.7654 35.1962 39.2305 37.7011C37.5621 39.3693 35.5788 40.6925 33.3946 41.5946C31.2105 42.4966 28.8687 42.9596 26.504 42.957V42.962ZM26.504 9.34195C22.3644 9.37987 18.4071 11.0425 15.4918 13.9685C12.5764 16.8946 10.9387 20.8477 10.9342 24.969C10.9298 29.0903 12.5592 33.0469 15.4682 35.9791C18.3773 38.9113 22.331 40.5823 26.4705 40.629H26.5057C30.6745 40.6332 34.6743 38.9885 37.625 36.0568C40.5758 33.1251 42.2359 29.1466 42.2402 24.9963C42.2444 20.8461 40.5924 16.8641 37.6475 13.9265C34.7027 10.9889 30.7063 9.33615 26.5375 9.33195L26.504 9.34195Z" fill="#426572"/>
<path d="M46.7313 16.5742C47.2171 17.7501 47.5958 18.967 47.8629 20.2103C47.9198 20.497 47.9633 20.7786 48.0102 21.0435C48.057 21.3085 48.1089 21.5801 48.1257 21.8384L48.1943 22.585C48.2127 22.8249 48.2411 23.0532 48.2378 23.2732C48.2378 23.7131 48.2462 24.1064 48.2378 24.458C48.2294 24.8097 48.1876 25.1063 48.1575 25.3496C48.0939 25.8378 48.0152 26.1045 47.9281 26.1045C47.8411 26.1045 47.749 25.8378 47.6586 25.3629C47.6118 25.1246 47.5766 24.8346 47.5214 24.4997C47.4661 24.1647 47.3958 23.7848 47.3322 23.3665C47.3054 23.1566 47.2519 22.9399 47.2084 22.7133L47.0711 22.0084C47.0326 21.7634 46.9556 21.5168 46.9037 21.2602C46.8518 21.0035 46.7832 20.7386 46.7129 20.4703C46.3955 19.3107 46.0069 18.1715 45.5496 17.0591C45.0742 15.9551 44.5262 14.8835 43.9092 13.8513L43.4823 13.1647L43.0538 12.5265C42.9199 12.3165 42.7776 12.1249 42.642 11.9382C42.5064 11.7516 42.3809 11.5683 42.2537 11.3983C41.2343 10.0418 40.5313 9.23195 40.6585 9.09364C40.7857 8.95533 41.7013 9.55357 42.9433 10.8134C43.099 10.97 43.2513 11.1467 43.4137 11.3216C43.576 11.4966 43.7485 11.6866 43.9041 11.8916C44.0598 12.0965 44.2389 12.3032 44.4063 12.5231L44.9085 13.2214C45.6208 14.2793 46.2311 15.4019 46.7313 16.5742Z" fill="white"/>
<path d="M36.6897 5.38921C37.8045 6.03245 38.4707 6.88066 38.2632 7.15895C38.0556 7.43724 37.0915 7.09396 36.0453 6.49238C34.9991 5.8908 34.2291 5.2509 34.3547 4.92761C34.4802 4.60432 35.5783 4.74264 36.6897 5.38921Z" fill="white"/>
</g>
<defs>
<clipPath id="clip0_2_110">
<rect width="53" height="79" fill="white"/>
</clipPath>
</defs>
</svg>
