<?xml version="1.0" standalone="no"?>
<!DOCTYPE svg PUBLIC "-//W3C//DTD SVG 20010904//EN"
 "http://www.w3.org/TR/2001/REC-SVG-20010904/DTD/svg10.dtd">
<svg version="1.0" xmlns="http://www.w3.org/2000/svg"
 width="475.000000pt" height="475.000000pt" viewBox="0 0 475.000000 475.000000"
 preserveAspectRatio="xMidYMid meet">
<metadata>
Created by potrace 1.14, written by Peter Selinger 2001-2017
</metadata>
<g transform="translate(0.000000,475.000000) scale(0.100000,-0.100000)"
fill="#000000" stroke="none">
<path d="M2125 4728 c-105 -11 -291 -53 -380 -85 -38 -14 -122 -52 -185 -84
-440 -224 -703 -637 -761 -1198 -26 -251 5 -474 111 -791 132 -397 307 -761
633 -1320 260 -446 643 -1030 804 -1228 l18 -24 70 88 c38 49 173 244 300 434
647 969 1077 1827 1191 2376 23 110 27 153 27 289 -1 444 -153 836 -433 1115
-241 240 -528 376 -895 425 -120 16 -373 18 -500 3z m500 -149 c695 -102 1150
-616 1182 -1335 8 -188 -20 -355 -102 -600 -170 -511 -569 -1261 -1067 -2007
l-126 -188 -77 108 c-303 423 -766 1185 -985 1623 -188 375 -328 749 -392
1045 -26 119 -30 365 -9 509 39 261 302 567 616 716 266 126 636 176 960 129z"/>
<path d="M2255 4320 c-525 -57 -935 -491 -962 -1017 -17 -317 92 -601 316
-824 141 -141 305 -235 508 -291 66 -18 105 -22 253 -22 157 0 185 3 272 27
189 50 354 145 493 282 339 336 418 839 199 1265 -165 321 -483 539 -847 579
-105 12 -128 12 -232 1z m350 -169 c88 -23 220 -83 293 -132 68 -47 187 -164
238 -235 57 -80 119 -210 146 -309 30 -110 32 -346 4 -450 -73 -272 -240 -485
-476 -609 -220 -115 -455 -141 -688 -76 -333 93 -595 374 -667 715 -83 393
109 809 468 1009 69 39 216 91 298 105 88 16 292 6 384 -18z"/>
</g>
</svg>
